<svg width="34" height="34" viewBox="0 0 34 34" fill="none" xmlns="http://www.w3.org/2000/svg">
<path fill-rule="evenodd" clip-rule="evenodd" d="M29.1466 29.1715C30.1495 27.6415 30.5235 26.8595 31.2885 25.1426C25.6447 23.0006 24.7437 14.9598 30.3195 11.8829C28.6196 9.74095 26.2226 8.5 23.9617 8.5C22.3297 8.5 21.2078 8.92501 20.2048 9.316C19.3548 9.63899 18.5898 9.92796 17.6379 9.92796C16.6179 9.92796 15.7169 9.60499 14.7649 9.265C13.728 8.89101 12.64 8.5 11.28 8.5C8.7471 8.5 6.04418 10.047 4.32722 12.6989C1.91329 16.4388 2.33828 23.4426 6.23118 29.4264C7.62514 31.5684 9.49509 33.9653 11.926 33.9993C12.946 34.0163 13.609 33.7104 14.34 33.3874C15.1729 33.0134 16.0739 32.6053 17.6549 32.6053C19.2358 32.5883 20.1198 33.0134 20.9528 33.3874C21.6668 33.7104 22.3127 34.0163 23.3157 33.9993C25.7806 33.9653 27.7526 31.3134 29.1466 29.1715Z" fill="#030401"/>
<path fill-rule="evenodd" clip-rule="evenodd" d="M24.0343 0C24.2764 1.78227 23.5954 3.54835 22.7024 4.77974C21.7489 6.10834 20.0841 7.14526 18.4798 7.08045C18.1923 5.363 18.9339 3.59692 19.842 2.41415C20.856 1.11795 22.5662 0.113417 24.0343 0Z" fill="#030401"/>
</svg>
