<svg width="34" height="34" viewBox="0 0 34 34" fill="none" xmlns="http://www.w3.org/2000/svg">
<path fill-rule="evenodd" clip-rule="evenodd" d="M29.1468 29.1715C30.1498 27.6415 30.5238 26.8595 31.2887 25.1426C25.6449 23.0006 24.7439 14.9598 30.3198 11.8829C28.6198 9.74095 26.2229 8.5 23.9619 8.5C22.33 8.5 21.208 8.92501 20.205 9.316C19.3551 9.63899 18.5901 9.92796 17.6381 9.92796C16.6181 9.92796 15.7172 9.60499 14.7652 9.265C13.7282 8.89101 12.6402 8.5 11.2803 8.5C8.74734 8.5 6.04442 10.047 4.32747 12.6989C1.91353 16.4388 2.33852 23.4426 6.23142 29.4264C7.62538 31.5684 9.49533 33.9653 11.9263 33.9993C12.9462 34.0163 13.6092 33.7104 14.3402 33.3874C15.1732 33.0134 16.0741 32.6053 17.6551 32.6053C19.2361 32.5883 20.12 33.0134 20.953 33.3874C21.667 33.7104 22.313 34.0163 23.316 33.9993C25.7809 33.9653 27.7528 31.3134 29.1468 29.1715Z" fill="white"/>
<path fill-rule="evenodd" clip-rule="evenodd" d="M24.034 0C24.2762 1.78227 23.5951 3.54835 22.7022 4.77974C21.7487 6.10834 20.0839 7.14526 18.4796 7.08045C18.192 5.363 18.9336 3.59692 19.8417 2.41415C20.8558 1.11795 22.566 0.113417 24.034 0Z" fill="white"/>
</svg>
