<svg width="25" height="24" viewBox="0 0 25 24" fill="none" xmlns="http://www.w3.org/2000/svg">
<path d="M8.60015 19H8.09427C4.04721 19 2.02368 18 2.02368 13V8C2.02368 4 4.04721 2 8.09427 2H16.1884C20.2354 2 22.259 4 22.259 8V13C22.259 17 20.2354 19 16.1884 19H15.6825C15.3689 19 15.0653 19.15 14.8731 19.4L13.3554 21.4C12.6877 22.28 11.595 22.28 10.9272 21.4L9.40956 19.4C9.24768 19.18 8.87333 19 8.60015 19Z" fill="#0048AD"/>
<path fill-rule="evenodd" clip-rule="evenodd" d="M16.1849 11H16.194H16.1849Z" fill="#0048AD"/>
<path d="M16.1849 11H16.194" stroke="#252525" stroke-width="2" stroke-linecap="round" stroke-linejoin="round"/>
<path d="M12.1368 11H12.1459" stroke="#252525" stroke-width="2" stroke-linecap="round" stroke-linejoin="round"/>
<path d="M8.0887 11H8.09779" stroke="#252525" stroke-width="2" stroke-linecap="round" stroke-linejoin="round"/>
</svg>
