<svg width="32" height="32" viewBox="0 0 32 32" fill="none" xmlns="http://www.w3.org/2000/svg">
<g clip-path="url(#clip0_1101_3128)">
<path d="M27.0459 0H4.9541C2.22241 0 0 2.22241 0 4.9541V7.09595H32V4.9541C32 2.22241 29.7776 0 27.0459 0ZM4.9541 4.48535C4.43848 4.48535 4.0166 4.06543 4.0166 3.54785C4.0166 3.03052 4.43848 2.61035 4.9541 2.61035C5.46973 2.61035 5.8916 3.03052 5.8916 3.54785C5.8916 4.06543 5.46973 4.48535 4.9541 4.48535ZM8.9707 4.48535C8.45508 4.48535 8.0332 4.06543 8.0332 3.54785C8.0332 3.03052 8.45508 2.61035 8.9707 2.61035C9.48633 2.61035 9.9082 3.03052 9.9082 3.54785C9.9082 4.06543 9.48633 4.48535 8.9707 4.48535ZM12.9875 4.48535C12.4719 4.48535 12.05 4.06543 12.05 3.54785C12.05 3.03052 12.4719 2.61035 12.9875 2.61035C13.5032 2.61035 13.925 3.03052 13.925 3.54785C13.925 4.06543 13.5032 4.48535 12.9875 4.48535Z" fill="#4E8FF2"/>
<path d="M0 27.0459C0 29.7776 2.22241 32 4.9541 32H27.0459C29.7776 32 32 29.7776 32 27.0459V8.9707H0V27.0459ZM21.3621 14.6545C20.9958 14.2886 20.9958 13.6948 21.3621 13.3289C21.7283 12.9626 22.3218 12.9626 22.688 13.3289L26.7046 17.3455C27.0708 17.7117 27.0708 18.3052 26.7046 18.6714L22.688 22.688C22.5049 22.8711 22.2649 22.9626 22.0249 22.9626C21.7852 22.9626 21.5452 22.8711 21.3621 22.688C20.9961 22.322 20.9961 21.7283 21.3621 21.3623L24.7158 18.0085L21.3621 14.6545ZM13.1531 21.6057L17.1699 13.5723C17.4014 13.1094 17.9646 12.9216 18.4275 13.1531C18.8906 13.3845 19.0784 13.9478 18.8469 14.4109L14.8301 22.4443C14.666 22.7727 14.3347 22.9626 13.991 22.9626C13.8501 22.9626 13.707 22.9309 13.5725 22.8635C13.1094 22.6321 12.9216 22.0688 13.1531 21.6057ZM5.29541 17.3455L9.31201 13.3286C9.67822 12.9626 10.2717 12.9626 10.6379 13.3286C11.0039 13.6948 11.0039 14.2883 10.6379 14.6545L7.28418 18.0083L10.6377 21.3621C11.0039 21.728 11.0039 22.3218 10.6377 22.688C10.4548 22.8708 10.2148 22.9624 9.97485 22.9624C9.73511 22.9624 9.49512 22.8708 9.31201 22.688L5.29541 18.6711C4.9292 18.3052 4.9292 17.7117 5.29541 17.3455Z" fill="#4E8FF2"/>
</g>
<defs>
<clipPath id="clip0_1101_3128">
<rect width="32" height="32" fill="white"/>
</clipPath>
</defs>
</svg>
