<svg width="154" height="154" viewBox="0 0 154 154" fill="none" xmlns="http://www.w3.org/2000/svg">
<circle opacity="0.35" cx="77" cy="77" r="77" fill="#E6EDF7"/>
<circle cx="77" cy="77" r="60" fill="#E6EDF7"/>
<path d="M96.4675 50.2787H90.2592C90.232 48.9202 89.1316 47.847 87.7867 47.847H85.3143C85.0426 47.847 84.798 47.6976 84.6758 47.4667L83.7656 45.7006C83.358 44.8991 82.543 44.3965 81.6463 44.3965H75.2207V109.604H96.4675C100.801 109.604 104.32 106.086 104.32 101.766V58.1308C104.32 53.7972 100.801 50.2787 96.4675 50.2787Z" fill="black"/>
<path d="M96.4666 110.283H75.2203C74.8448 110.283 74.541 109.979 74.541 109.604V44.396C74.541 44.0206 74.8448 43.7168 75.2203 43.7168H81.6466C82.8021 43.7168 83.8448 44.3589 84.3702 45.3924L85.2789 47.1555L87.7863 47.1674C89.2894 47.1674 90.5311 48.1923 90.8562 49.5992H96.4666C101.171 49.5992 104.998 53.4259 104.998 58.1302V101.765C104.998 106.462 101.171 110.283 96.4666 110.283ZM75.8995 108.924H96.4666C100.421 108.924 103.64 105.713 103.64 101.765V58.1302C103.64 54.1754 100.421 50.9577 96.4666 50.9577H90.2592C89.889 50.9577 89.5879 50.6618 89.5799 50.2923C89.56 49.302 88.772 48.5259 87.7863 48.5259H85.3134C84.7907 48.5259 84.3171 48.2413 84.0743 47.7843L83.1616 46.0112C82.8671 45.4328 82.2873 45.0753 81.6466 45.0753H75.8995V108.924Z" fill="black"/>
<path d="M100.244 58.1314V101.766C100.244 106.086 96.7252 109.605 92.3916 109.605H57.5327C53.1991 109.605 49.6807 106.086 49.6807 101.766V58.1314C49.6807 53.7978 53.1991 50.2793 57.5327 50.2793H92.3916C96.7252 50.2793 100.244 53.7978 100.244 58.1314Z" fill="#0048AD"/>
<path d="M92.3914 110.283H57.5336C52.8293 110.283 49.002 106.463 49.002 101.766V58.1306C49.002 53.4263 52.8293 49.5996 57.5336 49.5996H92.3914C97.0957 49.5996 100.923 53.4263 100.923 58.1306V101.766C100.923 106.463 97.0957 110.283 92.3914 110.283ZM57.5336 50.9581C53.5789 50.9581 50.3604 54.1759 50.3604 58.1306V101.766C50.3604 105.713 53.5789 108.925 57.5336 108.925H92.3914C96.3461 108.925 99.5646 105.713 99.5646 101.766V58.1306C99.5646 54.1759 96.3461 50.9581 92.3914 50.9581H57.5336Z" fill="black"/>
<path d="M94.8093 58.0087V93.3024L83.7105 104.17H57.4101C56.1467 104.17 55.1143 103.138 55.1143 101.874V58.0087C55.1143 56.7454 56.1467 55.7129 57.4101 55.7129H92.5135C93.7768 55.7129 94.8093 56.7454 94.8093 58.0087Z" fill="#E6EDF7"/>
<path d="M83.7108 104.849H57.4099C55.7702 104.849 54.4355 103.514 54.4355 101.874V58.0082C54.4355 56.3678 55.7702 55.0332 57.4099 55.0332H92.5144C94.1542 55.0332 95.4888 56.3678 95.4888 58.0082V93.3018C95.4888 93.4842 95.4158 93.6593 95.2845 93.7873L84.1857 104.655C84.0597 104.779 83.8885 104.849 83.7108 104.849ZM57.4099 56.3917C56.5184 56.3917 55.794 57.1167 55.794 58.0082V101.874C55.794 102.765 56.5184 103.49 57.4099 103.49H83.4335L94.1303 93.0165V58.0082C94.1303 57.1167 93.4059 56.3917 92.5144 56.3917H57.4099Z" fill="black"/>
<path d="M94.8108 93.3027L83.7119 104.171V95.6257C83.7119 94.3352 84.7444 93.3027 86.035 93.3027H94.8108Z" fill="#DDDDDD"/>
<path d="M83.7115 104.849C83.6226 104.849 83.5337 104.832 83.4488 104.796C83.1967 104.69 83.0322 104.444 83.0322 104.17V95.6253C83.0322 93.9696 84.3788 92.623 86.0344 92.623H94.8102C95.0862 92.623 95.3343 92.7902 95.4391 93.0456C95.5439 93.301 95.4828 93.5948 95.2852 93.7878L84.1864 104.656C84.0577 104.782 83.8853 104.849 83.7115 104.849ZM86.0344 93.9815C85.1124 93.9815 84.3907 94.7032 84.3907 95.6253V102.554L93.1453 93.9815H86.0344Z" fill="black"/>
<path d="M86.1976 50.3467V55.4274C86.1976 56.8131 85.0836 57.927 83.7115 57.927H64.0134C62.6413 57.927 61.5273 56.8131 61.5273 55.4274V50.3467C61.5273 48.961 62.6413 47.847 64.0134 47.847H66.4859C66.7576 47.847 67.0021 47.6976 67.1243 47.4667L68.0346 45.7006C68.4421 44.8991 69.2572 44.3965 70.1538 44.3965H77.5711C78.4678 44.3965 79.2828 44.8991 79.6904 45.7006L80.6006 47.4667C80.7228 47.6976 80.9673 47.847 81.2391 47.847H83.7115C85.0836 47.847 86.1976 48.961 86.1976 50.3467Z" fill="#E6EDF7"/>
<path d="M83.7112 58.6058H64.013C62.2672 58.6058 60.8477 57.1797 60.8477 55.4271V50.3461C60.8477 48.5936 62.2672 47.1674 64.013 47.1674H66.4859L67.4305 45.389C67.9545 44.3589 68.9986 43.7168 70.1541 43.7168H77.5714C78.7269 43.7168 79.7697 44.3589 80.295 45.3924L81.2038 47.1555L83.7112 47.1674C85.457 47.1674 86.8765 48.5936 86.8765 50.3461V55.4271C86.8765 57.1797 85.457 58.6058 83.7112 58.6058ZM64.013 48.5259C63.0167 48.5259 62.2061 49.3425 62.2061 50.3461V55.4271C62.2061 56.4308 63.0167 57.2473 64.013 57.2473H83.7112C84.7075 57.2473 85.5181 56.4308 85.5181 55.4271V50.3461C85.5181 49.3425 84.7075 48.5259 83.7112 48.5259H81.2383C80.7156 48.5259 80.242 48.2413 79.9992 47.7843L79.0865 46.0112C78.7919 45.4328 78.2122 45.0753 77.5714 45.0753H70.1541C69.512 45.0753 68.9323 45.4328 68.6391 46.0079L67.7277 47.7777C67.4822 48.2413 67.0086 48.5259 66.4859 48.5259H64.013Z" fill="black"/>
<path d="M82.6774 51.6983H65.4986C65.1231 51.6983 64.8193 51.3945 64.8193 51.0191C64.8193 50.6436 65.1231 50.3398 65.4986 50.3398H82.6774C83.0528 50.3398 83.3566 50.6436 83.3566 51.0191C83.3566 51.3945 83.0528 51.6983 82.6774 51.6983Z" fill="black"/>
<path d="M82.6774 54.9249H65.4986C65.1231 54.9249 64.8193 54.6211 64.8193 54.2457C64.8193 53.8702 65.1231 53.5664 65.4986 53.5664H82.6774C83.0528 53.5664 83.3566 53.8702 83.3566 54.2457C83.3566 54.6211 83.0528 54.9249 82.6774 54.9249Z" fill="black"/>
<path d="M84.5036 65.1124H66.2847C65.9093 65.1124 65.6055 64.8086 65.6055 64.4332C65.6055 64.0577 65.9093 63.7539 66.2847 63.7539H84.5036C84.8791 63.7539 85.1829 64.0577 85.1829 64.4332C85.1829 64.8086 84.8791 65.1124 84.5036 65.1124Z" fill="black"/>
<path d="M89.2604 71.5655H69.5318C69.1563 71.5655 68.8525 71.2617 68.8525 70.8863C68.8525 70.5108 69.1563 70.207 69.5318 70.207H89.2604C89.6359 70.207 89.9397 70.5108 89.9397 70.8863C89.9397 71.2617 89.6359 71.5655 89.2604 71.5655Z" fill="black"/>
<path d="M66.2843 71.5655H61.5269C61.1515 71.5655 60.8477 71.2617 60.8477 70.8863C60.8477 70.5108 61.1515 70.207 61.5269 70.207H66.2843C66.6597 70.207 66.9635 70.5108 66.9635 70.8863C66.9635 71.2617 66.6597 71.5655 66.2843 71.5655Z" fill="black"/>
<path d="M89.2608 78.0186H84.5035C84.128 78.0186 83.8242 77.7148 83.8242 77.3394C83.8242 76.964 84.128 76.6602 84.5035 76.6602H89.2608C89.6363 76.6602 89.9401 76.964 89.9401 77.3394C89.9401 77.7148 89.6363 78.0186 89.2608 78.0186Z" fill="black"/>
<path d="M81.164 78.0186H61.5269C61.1515 78.0186 60.8477 77.7148 60.8477 77.3394C60.8477 76.964 61.1515 76.6602 61.5269 76.6602H81.164C81.5394 76.6602 81.8432 76.964 81.8432 77.3394C81.8432 77.7148 81.5394 78.0186 81.164 78.0186Z" fill="black"/>
<path d="M89.2602 84.4718H76.3082C75.9327 84.4718 75.6289 84.168 75.6289 83.7925C75.6289 83.4171 75.9327 83.1133 76.3082 83.1133H89.2602C89.6357 83.1133 89.9395 83.4171 89.9395 83.7925C89.9395 84.168 89.6357 84.4718 89.2602 84.4718Z" fill="black"/>
<path d="M73.0979 84.4718H61.5269C61.1515 84.4718 60.8477 84.168 60.8477 83.7925C60.8477 83.4171 61.1515 83.1133 61.5269 83.1133H73.0979C73.4734 83.1133 73.7772 83.4171 73.7772 83.7925C73.7772 84.168 73.4734 84.4718 73.0979 84.4718Z" fill="black"/>
<path d="M89.2609 90.9249H83.7115C83.336 90.9249 83.0322 90.6211 83.0322 90.2457C83.0322 89.8702 83.336 89.5664 83.7115 89.5664H89.2609C89.6363 89.5664 89.9401 89.8702 89.9401 90.2457C89.9401 90.6211 89.6363 90.9249 89.2609 90.9249Z" fill="black"/>
<path d="M80.3146 90.9249H67.6636C67.2882 90.9249 66.9844 90.6211 66.9844 90.2457C66.9844 89.8702 67.2882 89.5664 67.6636 89.5664H80.3146C80.69 89.5664 80.9938 89.8702 80.9938 90.2457C80.9938 90.6211 80.69 90.9249 80.3146 90.9249Z" fill="black"/>
<path d="M64.2678 90.9249H61.5269C61.1515 90.9249 60.8477 90.6211 60.8477 90.2457C60.8477 89.8702 61.1515 89.5664 61.5269 89.5664H64.2678C64.6432 89.5664 64.947 89.8702 64.947 90.2457C64.947 90.6211 64.6432 90.9249 64.2678 90.9249Z" fill="black"/>
<path d="M74.9619 97.378H61.5269C61.1515 97.378 60.8477 97.0742 60.8477 96.6988C60.8477 96.3233 61.1515 96.0195 61.5269 96.0195H74.9619C75.3373 96.0195 75.6411 96.3233 75.6411 96.6988C75.6411 97.0742 75.3373 97.378 74.9619 97.378Z" fill="black"/>
</svg>
