<svg width="24" height="24" viewBox="0 0 24 24" fill="none" xmlns="http://www.w3.org/2000/svg">
<g clip-path="url(#clip0_0_59)">
<path d="M20.2844 0H3.71558C1.66681 0 0 1.66681 0 3.71558V5.32196H24V3.71558C24 1.66681 22.3332 0 20.2844 0ZM3.71558 3.36401C3.32886 3.36401 3.01245 3.04907 3.01245 2.66089C3.01245 2.27289 3.32886 1.95776 3.71558 1.95776C4.10229 1.95776 4.4187 2.27289 4.4187 2.66089C4.4187 3.04907 4.10229 3.36401 3.71558 3.36401ZM6.72803 3.36401C6.34131 3.36401 6.0249 3.04907 6.0249 2.66089C6.0249 2.27289 6.34131 1.95776 6.72803 1.95776C7.11475 1.95776 7.43115 2.27289 7.43115 2.66089C7.43115 3.04907 7.11475 3.36401 6.72803 3.36401ZM9.74066 3.36401C9.35394 3.36401 9.03754 3.04907 9.03754 2.66089C9.03754 2.27289 9.35394 1.95776 9.74066 1.95776C10.1274 1.95776 10.4438 2.27289 10.4438 2.66089C10.4438 3.04907 10.1274 3.36401 9.74066 3.36401Z" fill="#4E8FF2"/>
<path d="M0 20.2849C0 22.3337 1.66681 24.0005 3.71558 24.0005H20.2844C22.3332 24.0005 24 22.3337 24 20.2849V6.72852H0V20.2849ZM16.0215 10.9914C15.7469 10.7169 15.7469 10.2716 16.0215 9.99713C16.2962 9.72247 16.7413 9.72247 17.016 9.99713L20.0284 13.0096C20.3031 13.2842 20.3031 13.7294 20.0284 14.004L17.016 17.0165C16.8787 17.1538 16.6987 17.2225 16.5187 17.2225C16.3389 17.2225 16.1589 17.1538 16.0215 17.0165C15.7471 16.742 15.7471 16.2967 16.0215 16.0222L18.5369 13.5069L16.0215 10.9914ZM9.86481 16.2048L12.8774 10.1797C13.051 9.83252 13.4734 9.69171 13.8206 9.8653C14.168 10.0389 14.3088 10.4613 14.1352 10.8087L11.1226 16.8337C10.9995 17.08 10.751 17.2225 10.4932 17.2225C10.3876 17.2225 10.2803 17.1987 10.1794 17.1481C9.83203 16.9745 9.69122 16.5521 9.86481 16.2048ZM3.97156 13.0096L6.98401 9.99695C7.25867 9.72247 7.7038 9.72247 7.97845 9.99695C8.25293 10.2716 8.25293 10.7167 7.97845 10.9914L5.46313 13.5067L7.97827 16.022C8.25293 16.2965 8.25293 16.7418 7.97827 17.0165C7.84113 17.1536 7.66113 17.2223 7.48114 17.2223C7.30133 17.2223 7.12134 17.1536 6.98401 17.0165L3.97156 14.0038C3.6969 13.7294 3.6969 13.2842 3.97156 13.0096Z" fill="#4E8FF2"/>
</g>
<defs>
<clipPath id="clip0_0_59">
<rect width="24" height="24" fill="white"/>
</clipPath>
</defs>
</svg>
