<svg width="18" height="18" viewBox="0 0 18 18" fill="none" xmlns="http://www.w3.org/2000/svg">
<path d="M5.0701 16.4996H12.93C15 16.4996 15.825 15.2322 15.9225 13.6872L16.3125 7.49225C16.4175 5.87227 15.1275 4.49979 13.5 4.49979C13.0425 4.49979 12.6225 4.23729 12.4125 3.8323L11.8725 2.74481C11.5275 2.06232 10.6275 1.49983 9.86254 1.49983L8.14506 1.49983C7.37257 1.49983 6.47258 2.06232 6.12759 2.74481L5.58759 3.8323C5.3776 4.23729 4.9576 4.49979 4.50011 4.49979C2.87263 4.49979 1.58264 5.87227 1.68764 7.49225L2.07764 13.6872C2.16764 15.2322 3.00013 16.4996 5.0701 16.4996Z" stroke="#030401" stroke-width="1.5" stroke-linecap="round" stroke-linejoin="round"/>
<path d="M7.87513 5.99932H10.1251" stroke="#030401" stroke-width="1.5" stroke-linecap="round" stroke-linejoin="round"/>
<path d="M8.99973 13.5C10.3422 13.5 11.4372 12.405 11.4372 11.0625C11.4372 9.72003 10.3422 8.62504 8.99973 8.62504C7.65725 8.62504 6.56226 9.72003 6.56226 11.0625C6.56226 12.405 7.65725 13.5 8.99973 13.5Z" stroke="#030401" stroke-width="1.5" stroke-linecap="round" stroke-linejoin="round"/>
</svg>
