<svg width="27" height="27" viewBox="0 0 27 27" fill="none" xmlns="http://www.w3.org/2000/svg">
<path d="M13.5228 3.27389C9.79909 3.27389 6.77286 6.30012 6.77286 10.0239V13.2751C6.77286 13.9613 6.48036 15.0076 6.13161 15.5926L4.83787 17.7413C4.03912 19.0688 4.59037 20.5425 6.05286 21.0375C10.9016 22.6575 16.1328 22.6575 20.9815 21.0375C22.3428 20.5875 22.939 18.9788 22.1965 17.7413L20.9028 15.5926C20.5653 15.0076 20.2728 13.9613 20.2728 13.2751V10.0239C20.2728 6.31137 17.2353 3.27389 13.5228 3.27389Z" stroke="#0048AD" stroke-width="1.5" stroke-miterlimit="10" stroke-linecap="round"/>
<path d="M15.604 3.60075C15.2552 3.4995 14.8952 3.42075 14.524 3.37576C13.444 3.24076 12.409 3.31951 11.4415 3.60075C11.7677 2.76826 12.5777 2.18326 13.5227 2.18326C14.4677 2.18326 15.2777 2.76826 15.604 3.60075Z" stroke="#0048AD" stroke-width="1.5" stroke-miterlimit="10" stroke-linecap="round" stroke-linejoin="round"/>
<path d="M16.8976 21.4422C16.8976 23.2985 15.3789 24.8172 13.5226 24.8172C12.6001 24.8172 11.7451 24.4347 11.1376 23.8272C10.5301 23.2197 10.1476 22.3647 10.1476 21.4422" stroke="#0048AD" stroke-width="1.5" stroke-miterlimit="10"/>
</svg>
