<svg width="26" height="26" viewBox="0 0 26 26" fill="none" xmlns="http://www.w3.org/2000/svg">
<path d="M13.0003 16.791C15.3945 16.791 17.3337 14.8518 17.3337 12.4577V6.49935C17.3337 4.10518 15.3945 2.16602 13.0003 2.16602C10.6062 2.16602 8.66699 4.10518 8.66699 6.49935L8.66699 12.4577C8.66699 14.8518 10.6062 16.791 13.0003 16.791Z" stroke="#030401" stroke-width="1.5" stroke-linecap="round" stroke-linejoin="round"/>
<path d="M4.71289 10.4551V12.2967C4.71289 16.8684 8.42872 20.5842 13.0004 20.5842C17.5721 20.5842 21.2879 16.8684 21.2879 12.2967V10.4551" stroke="#030401" stroke-width="1.5" stroke-linecap="round" stroke-linejoin="round"/>
<path d="M11.4941 6.96539C12.4691 6.60789 13.5308 6.60789 14.5058 6.96539" stroke="#030401" stroke-width="1.5" stroke-linecap="round" stroke-linejoin="round"/>
<path d="M12.1338 9.26219C12.708 9.11052 13.3038 9.11052 13.878 9.26219" stroke="#030401" stroke-width="1.5" stroke-linecap="round" stroke-linejoin="round"/>
<path d="M13 20.584V23.834" stroke="#030401" stroke-width="1.5" stroke-linecap="round" stroke-linejoin="round"/>
</svg>
