<svg width="154" height="154" viewBox="0 0 154 154" fill="none" xmlns="http://www.w3.org/2000/svg">
<circle opacity="0.35" cx="77" cy="77" r="77" fill="#E6EDF7"/>
<circle cx="77" cy="77" r="60" fill="#E6EDF7"/>
<path d="M93.2341 79.2797C98.3307 79.2797 102.462 75.1481 102.462 70.0515C102.462 64.9549 98.3307 60.8232 93.2341 60.8232C88.1375 60.8232 84.0059 64.9549 84.0059 70.0515C84.0059 75.1481 88.1375 79.2797 93.2341 79.2797Z" fill="black"/>
<path d="M93.2336 79.9594C87.7705 79.9594 83.3262 75.5151 83.3262 70.052C83.3262 64.5888 87.7705 60.1445 93.2336 60.1445C98.6967 60.1445 103.141 64.5888 103.141 70.052C103.141 75.5151 98.6967 79.9594 93.2336 79.9594ZM93.2336 61.503C88.52 61.503 84.6847 65.3384 84.6847 70.052C84.6847 74.7656 88.52 78.6009 93.2336 78.6009C97.9472 78.6009 101.783 74.7656 101.783 70.052C101.783 65.3384 97.9472 61.503 93.2336 61.503Z" fill="black"/>
<path d="M92.7524 70.4458V60.4609C92.7524 51.6307 85.5796 44.4443 76.7358 44.4443C75.7704 44.4443 74.8292 44.545 73.9102 44.7101V48.7643H79.0894V50.6775C83.5091 51.7321 86.8022 55.7088 86.8022 60.4609V70.0519H73.9102V109.557H82.7811C91.1222 109.557 97.874 102.805 97.874 94.464V77.5643C97.874 74.2496 95.7275 71.4375 92.7524 70.4458Z" fill="black"/>
<path d="M82.781 110.236H73.9097C73.5343 110.236 73.2305 109.932 73.2305 109.557V70.0519C73.2305 69.6764 73.5343 69.3726 73.9097 69.3726H86.1229V60.4615C86.1229 56.0995 83.1658 52.3491 78.9311 51.3381C78.626 51.2652 78.4097 50.9919 78.4097 50.6775V49.4437H73.9097C73.5343 49.4437 73.2305 49.1399 73.2305 48.7644V44.7102C73.2305 44.3812 73.4666 44.0999 73.7903 44.0416C74.8278 43.8558 75.7909 43.7656 76.7355 43.7656C85.9411 43.7656 93.4314 51.2559 93.4314 60.4615V69.9723C96.5145 71.2101 98.5536 74.2017 98.5536 77.5647V94.4636C98.5536 103.161 91.4786 110.236 82.781 110.236ZM74.589 108.878H82.781C90.729 108.878 97.1951 102.412 97.1951 94.4636V77.5647C97.1951 74.6209 95.3232 72.0193 92.5372 71.0907C92.26 70.9978 92.0729 70.7378 92.0729 70.4459V60.4615C92.0729 52.0041 85.1929 45.1241 76.7355 45.1241C76.043 45.1241 75.3359 45.1772 74.589 45.2873V48.0852H79.089C79.4644 48.0852 79.7682 48.389 79.7682 48.7644V50.1548C84.3359 51.4854 87.4814 55.6498 87.4814 60.4615V70.0519C87.4814 70.4273 87.1776 70.7311 86.8021 70.7311H74.589V108.878Z" fill="black"/>
<path d="M88.6837 60.4502V70.7204C88.6837 72.4592 87.1758 73.8585 85.3962 73.6819C83.8475 73.5188 82.7335 72.106 82.7335 70.5573V60.8578C82.7335 55.3558 78.495 50.5603 72.9795 50.3973C67.2875 50.2343 62.6007 54.8124 62.6007 60.4502V64.2946C62.6007 65.1641 61.8942 65.8705 61.0248 65.8705H58.2264C57.3705 65.8705 56.6641 65.1641 56.6641 64.2946V60.9256C56.6641 52.5845 62.8452 45.2894 71.1455 44.5151C80.655 43.632 88.6837 51.1308 88.6837 60.4502Z" fill="white"/>
<path d="M85.6921 74.3759C85.5713 74.3759 85.4506 74.3706 85.3286 74.3587C83.4912 74.1637 82.0544 72.4947 82.0544 70.5578V60.8587C82.0544 55.6131 77.9749 51.2259 72.9602 51.0773C70.409 51.0269 67.968 51.9502 66.1266 53.7385C64.2905 55.5229 63.2796 57.9056 63.2796 60.4501V64.2947C63.2796 65.5378 62.2674 66.55 61.0243 66.55H58.2264C56.99 66.55 55.9844 65.5378 55.9844 64.2947V60.9263C55.9844 52.1333 62.6163 44.6284 71.0817 43.8391C75.8483 43.392 80.3881 44.919 83.9051 48.1242C87.3729 51.2856 89.3629 55.7789 89.3629 60.4501V70.721C89.3629 71.7478 88.9238 72.7335 88.1583 73.4274C87.4817 74.0389 86.5995 74.3759 85.6921 74.3759ZM72.6816 49.7148C72.7877 49.7148 72.8925 49.7161 73 49.7188C78.7417 49.8886 83.4129 54.8861 83.4129 60.8587V70.5578C83.4129 71.8102 84.315 72.8848 85.4679 73.0068C86.1166 73.0705 86.756 72.8635 87.2469 72.4204C87.7285 71.984 88.0044 71.3644 88.0044 70.721V60.4501C88.0044 56.1597 86.1763 52.0338 82.9897 49.1284C79.7593 46.1846 75.5843 44.7836 71.2077 45.1923C63.4335 45.9166 57.3429 52.8271 57.3429 60.9263V64.2947C57.3429 64.7895 57.7395 65.1915 58.2264 65.1915H61.0243C61.5192 65.1915 61.9211 64.7895 61.9211 64.2947V60.4501C61.9211 57.5354 63.078 54.8065 65.1794 52.7648C67.2105 50.7907 69.8638 49.7148 72.6816 49.7148Z" fill="black"/>
<path d="M93.7997 77.5652V94.4649C93.7997 102.806 87.048 109.558 78.7069 109.558H66.6299C58.2888 109.558 51.5371 102.806 51.5371 94.4649V77.5652C51.5371 73.4082 54.9061 70.0527 59.0495 70.0527H86.2872C90.4306 70.0527 93.7997 73.4082 93.7997 77.5652Z" fill="#E6EDF7"/>
<path d="M78.7065 110.237H66.63C57.9324 110.237 50.8574 103.162 50.8574 94.464V77.5651C50.8574 73.0479 54.5322 69.373 59.0495 69.373H86.287C90.8042 69.373 94.479 73.0479 94.479 77.5651V94.464C94.479 103.162 87.404 110.237 78.7065 110.237ZM59.0495 70.7315C55.2818 70.7315 52.2159 73.7974 52.2159 77.5651V94.464C52.2159 102.412 58.682 108.878 66.63 108.878H78.7065C86.6544 108.878 93.1205 102.412 93.1205 94.464V77.5651C93.1205 73.7974 90.0546 70.7315 86.287 70.7315H59.0495Z" fill="black"/>
<path d="M78.4748 85.2218C78.4748 87.2282 77.4467 89.0088 75.8793 90.0497V96.9839C75.8793 98.7522 74.4496 100.194 72.669 100.194C70.8885 100.194 69.4588 98.7522 69.4588 96.9839V90.0497C67.8913 89.0088 66.8633 87.2282 66.8633 85.2218C66.8633 82.0244 69.4713 79.416 72.669 79.416C75.8667 79.416 78.4748 82.0244 78.4748 85.2218Z" fill="#0048AD"/>
<path d="M72.6683 100.873C70.5244 100.873 68.7798 99.1283 68.7798 96.9831V90.4002C67.1467 89.1797 66.1836 87.2693 66.1836 85.221C66.1836 81.6457 69.0929 78.7363 72.6683 78.7363C76.2449 78.7363 79.1543 81.6457 79.1543 85.221C79.1543 87.2693 78.1911 89.1797 76.558 90.4002V96.9831C76.558 99.1283 74.8135 100.873 72.6683 100.873ZM72.6683 80.0948C69.8412 80.0948 67.5421 82.3939 67.5421 85.221C67.5421 86.9377 68.3991 88.531 69.8345 89.4822C70.0242 89.6082 70.1383 89.8205 70.1383 90.0487V96.9831C70.1383 98.3787 71.2726 99.5143 72.6683 99.5143C74.0639 99.5143 75.1995 98.3787 75.1995 96.9831V90.0487C75.1995 89.8205 75.3136 89.6082 75.5033 89.4822C76.9388 88.531 77.7958 86.9377 77.7958 85.221C77.7958 82.3939 75.4954 80.0948 72.6683 80.0948Z" fill="black"/>
<path d="M89.1579 79.2797C94.2545 79.2797 98.3861 75.1481 98.3861 70.0515C98.3861 64.9549 94.2545 60.8232 89.1579 60.8232C84.0613 60.8232 79.9297 64.9549 79.9297 70.0515C79.9297 75.1481 84.0613 79.2797 89.1579 79.2797Z" fill="#0048AD"/>
<path d="M89.1574 79.9594C83.6943 79.9594 79.25 75.5151 79.25 70.052C79.25 64.5888 83.6943 60.1445 89.1574 60.1445C94.6206 60.1445 99.0649 64.5888 99.0649 70.052C99.0649 75.5151 94.6206 79.9594 89.1574 79.9594ZM89.1574 61.503C84.4438 61.503 80.6085 65.3384 80.6085 70.052C80.6085 74.7656 84.4438 78.6009 89.1574 78.6009C93.871 78.6009 97.7064 74.7656 97.7064 70.052C97.7064 65.3384 93.871 61.503 89.1574 61.503Z" fill="black"/>
<path d="M87.6477 73.1989C87.4739 73.1989 87.3001 73.1326 87.1674 72.9999L85.2517 71.0842C84.9864 70.8189 84.9864 70.3891 85.2517 70.1237C85.5171 69.8584 85.9469 69.8584 86.2122 70.1237L87.6477 71.5592L92.1026 67.1043C92.3679 66.8389 92.7977 66.8389 93.0631 67.1043C93.3284 67.3696 93.3284 67.7994 93.0631 68.0648L88.1279 72.9999C87.9952 73.1326 87.8215 73.1989 87.6477 73.1989Z" fill="white"/>
</svg>
