<svg width="32" height="32" viewBox="0 0 32 32" fill="none" xmlns="http://www.w3.org/2000/svg">
<rect x="2.66699" y="2.66602" width="26.6667" height="26.6667" rx="13.3333" fill="white"/>
<path d="M16.0003 2.66602C8.65366 2.66602 2.66699 8.65268 2.66699 15.9993C2.66699 23.346 8.65366 29.3327 16.0003 29.3327C23.347 29.3327 29.3337 23.346 29.3337 15.9993C29.3337 8.65268 23.347 2.66602 16.0003 2.66602ZM22.3737 12.9327L14.8137 20.4927C14.627 20.6793 14.3737 20.786 14.107 20.786C13.8403 20.786 13.587 20.6793 13.4003 20.4927L9.62699 16.7193C9.24033 16.3327 9.24033 15.6927 9.62699 15.306C10.0137 14.9193 10.6537 14.9193 11.0403 15.306L14.107 18.3727L20.9603 11.5194C21.347 11.1327 21.987 11.1327 22.3737 11.5194C22.7603 11.906 22.7603 12.5327 22.3737 12.9327Z" fill="#0048AD"/>
</svg>
