<svg width="43" height="42" viewBox="0 0 43 42" fill="none" xmlns="http://www.w3.org/2000/svg">
<path d="M6.73813 24.1851C6.42312 23.8701 6.16936 23.4764 6.0031 23.0126C5.83684 22.5488 5.73184 22.0588 5.70559 21.525C5.66184 20.6237 5.79309 19.8099 6.1081 19.0574C6.41437 18.3136 6.86939 17.6311 7.48191 17.0186C8.37445 16.126 9.53825 15.3823 10.9733 14.8047C12.4084 14.2272 13.9922 13.7984 15.716 13.5272C17.4573 13.2559 19.2249 13.1159 21.0362 13.1072C22.8476 13.1159 24.6151 13.2559 26.3389 13.5272C28.054 13.8072 29.6291 14.2272 31.0379 14.796C32.4555 15.3735 33.6193 16.1173 34.5293 17.0273C35.1243 17.6224 35.5881 18.2961 35.9031 19.0312C36.2269 19.7749 36.3844 20.5975 36.3581 21.4988C36.3494 22.6101 36.0081 23.4939 35.3606 24.1414C35.1156 24.3864 34.818 24.5789 34.4943 24.6927C34.1618 24.8152 33.803 24.8589 33.418 24.7889L28.5265 23.9576C28.1503 23.8964 27.8353 23.8089 27.564 23.6951C27.3015 23.5901 27.074 23.4501 26.9077 23.2838C26.6977 23.0738 26.549 22.8026 26.4702 22.4788C26.3827 22.1638 26.3389 21.7875 26.3389 21.3675L26.3127 20.0112C26.3127 19.8187 26.2427 19.6612 26.1027 19.5212C26.0327 19.4512 25.9627 19.3987 25.8752 19.3462C25.7789 19.3024 25.7002 19.2762 25.6302 19.2412C25.1839 19.1099 24.5364 19.0049 23.6963 18.9349C22.8476 18.8737 21.9638 18.8299 21.045 18.8212C20.1087 18.8299 19.2249 18.8562 18.3674 18.9262C17.5273 18.9962 16.8886 19.1099 16.4335 19.2499C16.3723 19.2762 16.2935 19.3024 16.206 19.3374C16.1098 19.3812 16.031 19.4424 15.9523 19.5212C15.8035 19.6699 15.7423 19.8362 15.7423 20.0287L15.7335 21.35C15.7335 21.7875 15.6898 22.1638 15.5935 22.4701C15.5147 22.7938 15.3747 23.0563 15.156 23.2751C14.9897 23.4413 14.7797 23.5814 14.5085 23.6951C14.2372 23.8089 13.9222 23.8964 13.5547 23.9664L8.60196 24.8064C8.21694 24.8764 7.87568 24.8502 7.56067 24.7277C7.2544 24.5964 6.98314 24.4301 6.73813 24.1851Z" fill="white"/>
</svg>
