<svg width="105" height="90" viewBox="0 0 105 90" fill="none" xmlns="http://www.w3.org/2000/svg">
<path d="M34.4736 43.1442L14.6661 48.4512C12.5967 49.0064 11.9189 45.6463 13.8657 45.1271L33.6732 39.8201C35.7426 39.2649 36.4204 42.6178 34.4736 43.1442ZM47.4958 30.0931L14.6661 38.89C12.5967 39.4452 11.9189 36.085 13.8657 35.5659L46.6955 26.769C48.7721 26.2138 49.4427 29.5667 47.4958 30.0931ZM13.8657 26.0047L46.6955 17.2078C48.7649 16.6525 49.4427 20.0127 47.4958 20.5318L14.6661 29.3287C12.5967 29.8839 11.9189 26.5238 13.8657 26.0047Z" fill="#0048AD"/>
<path fill-rule="evenodd" clip-rule="evenodd" d="M56.0406 5.23086V46.8359L4.6364 60.6081V19.0031L56.0406 5.23086ZM103.717 71.734L48.8877 86.4219C47.0418 86.9194 45.3329 86.9194 43.487 86.4219L5.88383 76.3415C5.14114 76.1396 4.6364 75.4907 4.6364 74.7191V68.6478C4.6364 68.2152 4.81666 67.8403 5.16277 67.5807C5.50888 67.3139 5.91267 67.2346 6.33088 67.3499L43.4942 77.3077C45.3473 77.8053 47.0418 77.8053 48.8949 77.3077L103.854 62.5837C104.539 62.4035 105 61.7978 105 61.0912C105 60.3845 104.539 59.786 103.854 59.5986L60.677 48.04V2.71437C60.677 1.8491 60.3092 1.0992 59.617 0.565622C58.9248 0.0392497 58.11 -0.126593 57.2736 0.0969343L3.15102 14.6046C1.26906 15.1093 0 16.7606 0 18.7074V62.0574V62.5549C0 64.4585 1.14648 65.8141 2.88423 66.326C2.02617 66.8236 2.08386 67.9124 2.08386 68.7632V75.2888C2.08386 76.8318 3.08612 78.137 4.57871 78.5407L43.4942 88.9672C45.3473 89.4648 47.0418 89.4648 48.8949 88.9672L103.854 74.2432C105.397 73.825 105.31 71.3013 103.717 71.734Z" fill="#0048AD"/>
<path fill-rule="evenodd" clip-rule="evenodd" d="M9.0567 71.7918L16.7864 73.8612V81.1078V85.9389L12.9216 82.6797L9.0567 83.8695V71.7918Z" fill="#0048AD"/>
</svg>
