<svg width="26" height="26" viewBox="0 0 26 26" fill="none" xmlns="http://www.w3.org/2000/svg">
<path d="M9.20866 20.5827H8.66699C4.33366 20.5827 2.16699 19.4993 2.16699 14.0827L2.16699 8.66602C2.16699 4.33268 4.33366 2.16602 8.66699 2.16602L17.3337 2.16602C21.667 2.16602 23.8337 4.33268 23.8337 8.66602L23.8337 14.0827C23.8337 18.416 21.667 20.5827 17.3337 20.5827H16.792C16.4562 20.5827 16.1312 20.7452 15.9253 21.016L14.3003 23.1827C13.5853 24.136 12.4153 24.136 11.7003 23.1827L10.0753 21.016C9.90199 20.7777 9.50116 20.5827 9.20866 20.5827Z" stroke="#292D32" stroke-width="1.5" stroke-miterlimit="10" stroke-linecap="round" stroke-linejoin="round"/>
<path d="M17.3297 11.9167H17.3394" stroke="#292D32" stroke-width="2" stroke-linecap="round" stroke-linejoin="round"/>
<path d="M12.9947 11.9167H13.0044" stroke="#292D32" stroke-width="2" stroke-linecap="round" stroke-linejoin="round"/>
<path d="M8.66072 11.9167H8.67045" stroke="#292D32" stroke-width="2" stroke-linecap="round" stroke-linejoin="round"/>
</svg>
