<svg width="12" height="12" viewBox="0 0 12 12" fill="none" xmlns="http://www.w3.org/2000/svg">
<mask id="path-1-inside-1_7_1053" fill="white">
<path d="M5.99977 8.39982C5.64977 8.39982 5.29977 8.26482 5.03477 7.99982L1.77477 4.73982C1.62977 4.59482 1.62977 4.35482 1.77477 4.20982C1.91977 4.06482 2.15977 4.06482 2.30477 4.20982L5.56477 7.46982C5.80477 7.70982 6.19477 7.70982 6.43477 7.46982L9.69477 4.20982C9.83977 4.06482 10.0798 4.06482 10.2248 4.20982C10.3698 4.35482 10.3698 4.59482 10.2248 4.73982L6.96477 7.99982C6.69977 8.26482 6.34977 8.39982 5.99977 8.39982Z"/>
</mask>
<path d="M5.99977 8.39982C5.64977 8.39982 5.29977 8.26482 5.03477 7.99982L1.77477 4.73982C1.62977 4.59482 1.62977 4.35482 1.77477 4.20982C1.91977 4.06482 2.15977 4.06482 2.30477 4.20982L5.56477 7.46982C5.80477 7.70982 6.19477 7.70982 6.43477 7.46982L9.69477 4.20982C9.83977 4.06482 10.0798 4.06482 10.2248 4.20982C10.3698 4.35482 10.3698 4.59482 10.2248 4.73982L6.96477 7.99982C6.69977 8.26482 6.34977 8.39982 5.99977 8.39982Z" fill="black"/>
<path d="M5.03477 7.99982L4.46908 8.56551L4.46908 8.56551L5.03477 7.99982ZM1.77477 4.73982L2.34045 4.17414L2.34045 4.17414L1.77477 4.73982ZM2.30477 4.20982L1.73908 4.77551L2.30477 4.20982ZM5.56477 7.46982L6.13045 6.90414L5.56477 7.46982ZM6.43477 7.46982L7.00045 8.03551L7.00045 8.03551L6.43477 7.46982ZM9.69477 4.20982L9.12908 3.64414L9.12908 3.64414L9.69477 4.20982ZM10.2248 4.73982L9.65908 4.17414L9.65908 4.17414L10.2248 4.73982ZM6.96477 7.99982L7.53045 8.56551L7.53045 8.56551L6.96477 7.99982ZM5.99977 7.59982C5.8546 7.59982 5.71031 7.544 5.60045 7.43414L4.46908 8.56551C4.88922 8.98565 5.44493 9.19982 5.99977 9.19982V7.59982ZM5.60045 7.43414L2.34045 4.17414L1.20908 5.30551L4.46908 8.56551L5.60045 7.43414ZM2.34045 4.17414C2.50787 4.34156 2.50787 4.60809 2.34045 4.77551L1.20908 3.64414C0.751661 4.10156 0.751661 4.84809 1.20908 5.30551L2.34045 4.17414ZM2.34045 4.77551C2.17303 4.94293 1.9065 4.94293 1.73908 4.77551L2.87045 3.64414C2.41303 3.18672 1.6665 3.18672 1.20908 3.64414L2.34045 4.77551ZM1.73908 4.77551L4.99908 8.03551L6.13045 6.90414L2.87045 3.64414L1.73908 4.77551ZM4.99908 8.03551C5.5515 8.58793 6.44803 8.58793 7.00045 8.03551L5.86908 6.90414C5.9415 6.83172 6.05803 6.83172 6.13045 6.90414L4.99908 8.03551ZM7.00045 8.03551L10.2605 4.77551L9.12908 3.64414L5.86908 6.90414L7.00045 8.03551ZM10.2605 4.77551C10.093 4.94293 9.8265 4.94293 9.65908 4.77551L10.7905 3.64414C10.333 3.18672 9.5865 3.18672 9.12908 3.64414L10.2605 4.77551ZM9.65908 4.77551C9.49166 4.60809 9.49166 4.34156 9.65908 4.17414L10.7905 5.30551C11.2479 4.84809 11.2479 4.10156 10.7905 3.64414L9.65908 4.77551ZM9.65908 4.17414L6.39908 7.43414L7.53045 8.56551L10.7905 5.30551L9.65908 4.17414ZM6.39908 7.43414C6.28922 7.544 6.14493 7.59982 5.99977 7.59982V9.19982C6.5546 9.19982 7.11031 8.98565 7.53045 8.56551L6.39908 7.43414Z" fill="black" mask="url(#path-1-inside-1_7_1053)"/>
</svg>
