<svg width="32" height="32" viewBox="0 0 32 32" fill="none" xmlns="http://www.w3.org/2000/svg">
<g clip-path="url(#clip0_0_92)">
<mask id="mask0_0_92" style="mask-type:luminance" maskUnits="userSpaceOnUse" x="0" y="0" width="32" height="32">
<path d="M0 1.90735e-06H32V32H0V1.90735e-06Z" fill="white"/>
</mask>
<g mask="url(#mask0_0_92)">
<path d="M24.4147 6.07728C22.7216 3.18965 19.5874 1.25046 16 1.25046C10.6988 1.25046 6.38575 5.4844 6.25319 10.7575C6.25212 10.7575 6.25106 10.7574 6.25 10.7574C3.48862 10.7574 1.25 12.9976 1.25 15.761C1.25 18.5245 3.48862 20.7646 6.25 20.7646H23.375C27.4481 20.7646 30.75 17.4604 30.75 13.3843C30.75 9.66152 27.9954 6.58302 24.4147 6.07728Z" fill="#1FB76D" stroke="#1FB76D" stroke-width="1.5" stroke-miterlimit="10" stroke-linecap="round" stroke-linejoin="round"/>
<path d="M18.375 28.3733C18.375 29.6859 17.3117 30.75 16 30.75C14.6883 30.75 13.625 29.6859 13.625 28.3733C13.625 27.0607 14.6883 25.9966 16 25.9966C17.3117 25.9966 18.375 27.0607 18.375 28.3733Z" fill="#1FB76D"/>
<path d="M30.75 28.3733C30.75 29.6859 29.6867 30.75 28.375 30.75C27.0633 30.75 26 29.6859 26 28.3733C26 27.0607 27.0633 25.9966 28.375 25.9966C29.6867 25.9966 30.75 27.0607 30.75 28.3733Z" fill="#1FB76D"/>
<path d="M16 25.9893V20.7608" stroke="#1FB76D" stroke-width="1.5" stroke-miterlimit="10" stroke-linecap="round" stroke-linejoin="round"/>
<path d="M26 28.3643H22.75V20.7608" stroke="#1FB76D" stroke-width="1.5" stroke-miterlimit="10" stroke-linecap="round" stroke-linejoin="round"/>
<path d="M1.25 28.3733C1.25 29.6859 2.31331 30.75 3.625 30.75C4.93669 30.75 6 29.6859 6 28.3733C6 27.0607 4.93669 25.9966 3.625 25.9966C2.31331 25.9966 1.25 27.0607 1.25 28.3733Z" fill="#1FB76D"/>
<path d="M6 28.3643H9.25V20.7608" stroke="#1FB76D" stroke-width="1.5" stroke-miterlimit="10" stroke-linecap="round" stroke-linejoin="round"/>
</g>
</g>
<defs>
<clipPath id="clip0_0_92">
<rect width="32" height="32" fill="white"/>
</clipPath>
</defs>
</svg>
