<svg width="58" height="58" viewBox="0 0 58 58" fill="none" xmlns="http://www.w3.org/2000/svg">
<path d="M56.0482 56.2617C54.6124 57.567 52.3585 57.5026 50.9895 56.1167L35.7298 40.5011C34.3775 39.1152 34.4442 36.9396 35.8801 35.6343C36.5813 35.0057 37.4661 34.6835 38.351 34.6835C39.2859 34.6835 40.2376 35.0541 40.9388 35.7632L56.1985 51.395C57.5508 52.7809 57.4841 54.9564 56.0482 56.2617Z" fill="#0048AD"/>
<path d="M53.5993 58.0002C52.427 58.0002 51.2547 57.5556 50.3841 56.6743L35.1217 41.0556C34.313 40.2286 33.8875 39.1483 33.9234 38.0152C33.9576 36.8813 34.4484 35.8276 35.306 35.0486C37.0473 33.4906 39.9201 33.5701 41.5407 35.2076L56.8047 50.8444C58.4677 52.5495 58.3845 55.2438 56.6188 56.849C55.7726 57.6178 54.6868 58.0002 53.5993 58.0002ZM38.3483 35.4909C37.6505 35.4909 36.9755 35.7521 36.4456 36.2258C35.919 36.7058 35.6125 37.3597 35.5913 38.0632C35.5701 38.7658 35.8342 39.4362 36.3364 39.9501L51.5938 55.5648C52.6389 56.6193 54.3786 56.6712 55.4742 55.6766C56.5699 54.6796 56.6221 53.0075 55.5884 51.9491L40.3293 36.3171C39.8108 35.7938 39.0869 35.4909 38.3483 35.4909Z" fill="#030401"/>
<path d="M36.3135 43.4467C40.3936 43.4467 43.7012 40.254 43.7012 36.3157C43.7012 32.3773 40.3936 29.1847 36.3135 29.1847C32.2333 29.1847 28.9257 32.3773 28.9257 36.3157C28.9257 40.254 32.2333 43.4467 36.3135 43.4467Z" fill="#030401"/>
<path d="M36.3193 44.2472C34.1329 44.2472 31.9497 43.4139 30.3356 41.7615C27.2248 38.577 27.3781 33.5433 30.6764 30.5406C32.2726 29.0865 34.309 28.3153 36.5573 28.3814C38.7535 28.4436 40.7915 29.3265 42.298 30.8687C43.8061 32.411 44.6002 34.4278 44.5366 36.5468C44.473 38.6659 43.5567 40.6347 41.9589 42.0888C40.3741 43.5319 38.3442 44.2472 36.3193 44.2472ZM36.3127 29.989C34.635 29.989 33.047 30.5973 31.8209 31.7131C29.1927 34.106 29.0704 38.1182 31.5503 40.6559C34.0285 43.192 38.1845 43.3093 40.8143 40.9164C42.0877 39.7573 42.8165 38.1891 42.867 36.4996C42.9192 34.811 42.285 33.2042 41.085 31.9751C39.8834 30.746 38.2578 30.0417 36.5084 29.9922C36.4432 29.9906 36.378 29.989 36.3127 29.989Z" fill="#030401"/>
<path d="M22.742 43.1111C34.8488 43.1111 44.6632 33.6378 44.6632 21.9518C44.6632 10.2659 34.8488 0.792526 22.742 0.792526C10.6353 0.792526 0.820865 10.2659 0.820865 21.9518C0.820865 33.6378 10.6353 43.1111 22.742 43.1111Z" fill="#0048AD"/>
<path d="M22.7503 43.9091C16.6998 43.9091 10.6607 41.6004 6.19173 37.0263C-2.41851 28.2156 -1.99623 14.2872 7.13085 5.97618C16.2563 -2.33559 30.6904 -1.92563 39.2974 6.88345C47.9076 15.6949 47.4853 29.6234 38.3566 37.9336C33.9692 41.9285 28.354 43.9091 22.7503 43.9091ZM22.7388 1.61138C17.546 1.61138 12.3433 3.44638 8.2754 7.14863C-0.181577 14.849 -0.571247 27.7561 7.40476 35.92C15.384 44.0838 28.7551 44.4599 37.2121 36.7611C45.6707 29.0608 46.0619 16.1536 38.0843 7.9898C33.9414 3.75168 28.3458 1.61138 22.7388 1.61138Z" fill="#030401"/>
<path d="M22.746 37.7871C31.8035 37.7871 39.146 30.6998 39.146 21.9571C39.146 13.2145 31.8035 6.12717 22.746 6.12717C13.6886 6.12717 6.34607 13.2145 6.34607 21.9571C6.34607 30.6998 13.6886 37.7871 22.746 37.7871Z" fill="#E6EDF7"/>
<path d="M16.9176 17.7573C16.9699 16.0651 17.5273 14.6966 18.5898 13.6517C19.6609 12.6068 21.1415 12.0843 23.0313 12.0843C24.8079 12.0843 26.2449 12.5744 27.3422 13.5546C28.4482 14.5348 29.0013 15.797 29.0013 17.3412C29.0013 19.3293 28.0781 20.9059 26.2318 22.071C25.3783 22.6074 24.7992 23.0974 24.4944 23.5413C24.1896 23.9759 24.0372 24.5354 24.0372 25.2196V26.0102H21.0065L20.9934 25.0671C20.9325 24.0406 21.0936 23.1853 21.4768 22.501C21.8687 21.8167 22.5218 21.1879 23.4363 20.6146C24.2549 20.0876 24.821 19.6021 25.1345 19.1582C25.448 18.7051 25.6048 18.1411 25.6048 17.466C25.6048 16.7355 25.3522 16.1391 24.8471 15.6768C24.342 15.2144 23.6801 14.9832 22.8615 14.9832C22.0254 14.9832 21.3505 15.2329 20.8367 15.7322C20.3228 16.2316 20.0398 16.9066 19.9875 17.7573H16.9176ZM22.6655 32.6264C22.0124 32.6264 21.4855 32.4276 21.0849 32.03C20.693 31.6232 20.497 31.0868 20.497 30.421C20.497 29.746 20.693 29.2097 21.0849 28.8121C21.4855 28.4052 22.0124 28.2018 22.6655 28.2018C23.3274 28.2018 23.8543 28.4052 24.2462 28.8121C24.6381 29.2097 24.834 29.746 24.834 30.421C24.834 31.0868 24.6381 31.6232 24.2462 32.03C23.8543 32.4276 23.3274 32.6264 22.6655 32.6264Z" fill="#030401"/>
<path d="M22.7507 38.5827C18.166 38.5827 13.5927 36.8343 10.2079 33.3696C7.04817 30.1364 5.38189 25.9101 5.51721 21.4689C5.65253 17.027 7.56991 12.9014 10.9204 9.85307C14.2677 6.80393 18.6682 5.20735 23.248 5.32617C27.8507 5.45601 32.124 7.30753 35.2821 10.54C41.8005 17.2135 41.4826 27.7631 34.5696 34.0566C31.2468 37.0821 26.9947 38.5827 22.7507 38.5827ZM22.7328 6.93061C18.7481 6.93061 14.9769 8.37532 12.065 11.0255C9.04054 13.7788 7.30741 17.5046 7.18676 21.5154C7.06448 25.5268 8.56935 29.344 11.421 32.2633C14.2742 35.1826 18.135 36.8555 22.291 36.9727C26.4224 37.0766 30.4006 35.6366 33.4251 32.8841C39.6679 27.2005 39.9565 17.673 34.0675 11.6464C31.2159 8.72705 27.355 7.05415 23.1991 6.93691C23.0442 6.93297 22.8877 6.93061 22.7328 6.93061Z" fill="#030401"/>
</svg>
