<svg width="154" height="154" viewBox="0 0 154 154" fill="none" xmlns="http://www.w3.org/2000/svg">
<circle opacity="0.35" cx="77" cy="77" r="77" fill="#E6EDF7"/>
<circle cx="77" cy="77" r="60" fill="#E6EDF7"/>
<path d="M100.719 78.7402H91.3781V104.553H91.335L96.9056 109.321C97.6786 109.978 98.8636 109.424 98.8636 108.407V105.019C98.8636 104.362 99.3918 103.834 100.049 103.834H100.719C104.081 103.834 106.812 101.103 106.812 97.7406V84.8332C106.812 81.4582 104.081 78.7402 100.719 78.7402Z" fill="black"/>
<path d="M97.6682 110.285C97.237 110.285 96.8125 110.132 96.4662 109.838L90.893 105.069C90.6767 104.884 90.5985 104.584 90.698 104.318V78.7398C90.698 78.3643 91.0018 78.0605 91.3772 78.0605H100.718C104.453 78.0605 107.491 81.0986 107.491 84.8318V97.7401C107.491 101.475 104.453 104.513 100.718 104.513H100.048C99.7643 104.513 99.5427 104.734 99.5427 105.018V108.406C99.5427 109.147 99.1262 109.799 98.4562 110.11C98.2015 110.227 97.9335 110.285 97.6682 110.285ZM92.0564 104.276L97.3471 108.804C97.5687 108.993 97.7969 108.918 97.8858 108.876C97.9746 108.835 98.1842 108.706 98.1842 108.406V105.018C98.1842 103.99 99.02 103.154 100.048 103.154H100.718C103.703 103.154 106.132 100.725 106.132 97.7401V84.8318C106.132 81.8468 103.703 79.419 100.718 79.419H92.0564V104.276Z" fill="black"/>
<path d="M95.6412 44.3965H78.9766V69.4899H95.6412C99.0033 69.4899 101.734 66.759 101.734 63.3969V50.4895C101.734 47.1145 99.0033 44.3965 95.6412 44.3965Z" fill="black"/>
<path d="M95.6412 70.1689H78.9771C78.6017 70.1689 78.2979 69.8651 78.2979 69.4896V44.396C78.2979 44.0206 78.6017 43.7168 78.9771 43.7168H95.6412C99.3757 43.7168 102.414 46.7548 102.414 50.4893V63.3977C102.414 67.1309 99.3757 70.1689 95.6412 70.1689ZM79.6563 68.8104H95.6412C98.6261 68.8104 101.055 66.3826 101.055 63.3977V50.4893C101.055 47.5044 98.6261 45.0753 95.6412 45.0753H79.6563V68.8104Z" fill="black"/>
<path d="M96.5832 50.4941V63.3998C96.5832 66.7553 93.8526 69.4858 90.4836 69.4858H63.9522C63.667 69.4858 63.3953 69.5945 63.1779 69.7711L57.1054 74.9742C56.3311 75.6398 55.1356 75.0829 55.1356 74.064V70.6813C55.1356 70.0156 54.6194 69.4858 53.9537 69.4858H53.2881C49.919 69.4858 47.1885 66.7553 47.1885 63.3998V50.4941C47.1885 47.1115 49.919 44.3945 53.2881 44.3945H90.4836C93.8526 44.3945 96.5832 47.1115 96.5832 50.4941Z" fill="#E6EDF7"/>
<path d="M56.3363 75.9432C56.0723 75.9432 55.8043 75.8861 55.5509 75.7694C54.8756 75.4589 54.4564 74.8062 54.4564 74.0633V70.6804C54.4564 70.3858 54.2402 70.1643 53.9536 70.1643H53.2876C49.5504 70.1643 46.5098 67.1289 46.5098 63.3984V50.4927C46.5098 46.7555 49.5504 43.7148 53.2876 43.7148H90.4843C94.2214 43.7148 97.2621 46.7555 97.2621 50.4927V63.3984C97.2621 67.1289 94.2214 70.1643 90.4843 70.1643H63.9526C63.8345 70.1643 63.7124 70.212 63.605 70.2983L57.5475 75.4895C57.1999 75.788 56.7714 75.9432 56.3363 75.9432ZM53.2876 45.0733C50.3 45.0733 47.8683 47.5051 47.8683 50.4927V63.3984C47.8683 66.3807 50.3 68.8058 53.2876 68.8058H53.9536C54.9977 68.8058 55.8149 69.6296 55.8149 70.6804V74.0633C55.8149 74.3724 56.0471 74.5024 56.1173 74.5343C56.2076 74.5767 56.4397 74.6497 56.6626 74.4587L62.736 69.2542C63.0969 68.961 63.5241 68.8058 63.9526 68.8058H90.4843C93.4719 68.8058 95.9036 66.3807 95.9036 63.3984V50.4927C95.9036 47.5051 93.4719 45.0733 90.4843 45.0733H53.2876Z" fill="black"/>
<path d="M91.1492 50.5069H87.9732C87.5977 50.5069 87.2939 50.2031 87.2939 49.8277C87.2939 49.4522 87.5977 49.1484 87.9732 49.1484H91.1492C91.5246 49.1484 91.8284 49.4522 91.8284 49.8277C91.8284 50.2031 91.5246 50.5069 91.1492 50.5069Z" fill="black"/>
<path d="M84.7958 50.5069H72.4566C72.0811 50.5069 71.7773 50.2031 71.7773 49.8277C71.7773 49.4522 72.0811 49.1484 72.4566 49.1484H84.7958C85.1712 49.1484 85.475 49.4522 85.475 49.8277C85.475 50.2031 85.1712 50.5069 84.7958 50.5069Z" fill="black"/>
<path d="M91.1488 55.2491H80.3804C80.005 55.2491 79.7012 54.9453 79.7012 54.5699C79.7012 54.1944 80.005 53.8906 80.3804 53.8906H91.1488C91.5243 53.8906 91.8281 54.1944 91.8281 54.5699C91.8281 54.9453 91.5243 55.2491 91.1488 55.2491Z" fill="black"/>
<path d="M77.4302 55.2491H72.4566C72.0811 55.2491 71.7773 54.9453 71.7773 54.5699C71.7773 54.1944 72.0811 53.8906 72.4566 53.8906H77.4302C77.8056 53.8906 78.1094 54.1944 78.1094 54.5699C78.1094 54.9453 77.8056 55.2491 77.4302 55.2491Z" fill="black"/>
<path d="M91.1487 59.9893H88.8775C88.502 59.9893 88.1982 59.6855 88.1982 59.3101C88.1982 58.9347 88.502 58.6309 88.8775 58.6309H91.1487C91.5242 58.6309 91.828 58.9347 91.828 59.3101C91.828 59.6855 91.5242 59.9893 91.1487 59.9893Z" fill="black"/>
<path d="M86.608 59.9893H72.4566C72.0811 59.9893 71.7773 59.6855 71.7773 59.3101C71.7773 58.9347 72.0811 58.6309 72.4566 58.6309H86.608C86.9834 58.6309 87.2872 58.9347 87.2872 59.3101C87.2872 59.6855 86.9834 59.9893 86.608 59.9893Z" fill="black"/>
<path d="M84.7958 64.7296H72.4566C72.0811 64.7296 71.7773 64.4258 71.7773 64.0503C71.7773 63.6749 72.0811 63.3711 72.4566 63.3711H84.7958C85.1712 63.3711 85.475 63.6749 85.475 64.0503C85.475 64.4258 85.1712 64.7296 84.7958 64.7296Z" fill="black"/>
<path d="M102.615 84.8359V97.7416C102.615 101.097 99.884 103.828 96.5285 103.828H95.8492C95.1972 103.828 94.6674 104.357 94.6674 105.023V108.406C94.6674 109.425 93.4855 109.982 92.7111 109.316L86.6251 104.113C86.4078 103.936 86.1361 103.828 85.8508 103.828H59.3195C55.964 103.828 53.2334 101.097 53.2334 97.7416V84.8359C53.2334 81.4533 55.964 78.7363 59.3195 78.7363H96.5285C99.884 78.7363 102.615 81.4533 102.615 84.8359Z" fill="#E6EDF7"/>
<path d="M93.4782 110.285C93.0444 110.285 92.6172 110.131 92.2697 109.833L86.183 104.629C86.0914 104.554 85.9681 104.507 85.8513 104.507H59.3196C55.5891 104.507 52.5537 101.472 52.5537 97.7415V84.8358C52.5537 81.0973 55.5891 78.0566 59.3196 78.0566H96.5282C100.259 78.0566 103.294 81.0973 103.294 84.8358V97.7415C103.294 101.472 100.259 104.507 96.5282 104.507H95.849C95.5664 104.507 95.3462 104.734 95.3462 105.023V108.406C95.3462 109.151 94.9283 109.805 94.257 110.114C94.0049 110.229 93.7396 110.285 93.4782 110.285ZM59.3196 79.4151C56.3373 79.4151 53.9122 81.8469 53.9122 84.8358V97.7415C53.9122 100.724 56.3373 103.149 59.3196 103.149H85.8513C86.2812 103.149 86.7083 103.304 87.0546 103.587L93.1532 108.8C93.3774 108.993 93.6043 108.92 93.6892 108.879C93.7595 108.847 93.9877 108.717 93.9877 108.406V105.023C93.9877 103.99 94.8221 103.149 95.849 103.149H96.5282C99.5105 103.149 101.936 100.724 101.936 97.7415V84.8358C101.936 81.8469 99.5105 79.4151 96.5282 79.4151H59.3196Z" fill="black"/>
<path d="M59.7334 64.0508C63.6603 64.0508 66.8437 60.8674 66.8437 56.9404C66.8437 53.0135 63.6603 49.8301 59.7334 49.8301C55.8065 49.8301 52.623 53.0135 52.623 56.9404C52.623 60.8674 55.8065 64.0508 59.7334 64.0508Z" fill="#E6EDF7"/>
<path d="M59.7335 64.7306C55.4377 64.7306 51.9434 61.2362 51.9434 56.9405C51.9434 52.6448 55.4377 49.1504 59.7335 49.1504C64.0292 49.1504 67.5235 52.6448 67.5235 56.9405C67.5235 61.2362 64.0292 64.7306 59.7335 64.7306ZM59.7335 50.5089C56.1873 50.5089 53.3018 53.3943 53.3018 56.9405C53.3018 60.4866 56.1873 63.3721 59.7335 63.3721C63.2796 63.3721 66.1651 60.4866 66.1651 56.9405C66.1651 53.3943 63.2796 50.5089 59.7335 50.5089Z" fill="black"/>
<path d="M64.6342 62.0072V62.0877C63.3608 63.3048 61.6359 64.0463 59.7338 64.0463C57.6705 64.0463 55.8086 63.1678 54.5029 61.7573C54.6319 59.0733 56.8565 56.9375 59.5645 56.9375C62.3694 56.9375 64.6342 59.2104 64.6342 62.0072Z" fill="#0048AD"/>
<path d="M59.734 64.7258C57.5676 64.7258 55.4794 63.8118 54.0042 62.2198C53.8808 62.0858 53.8158 61.908 53.8251 61.7249C53.971 58.6591 56.493 56.2578 59.5642 56.2578C62.7349 56.2578 65.3139 58.8368 65.3139 62.0075V62.0884C65.3139 62.2742 65.2383 62.4519 65.1043 62.5793C63.6556 63.963 61.7479 64.7258 59.734 64.7258ZM55.2048 61.506C56.4068 62.6921 58.0412 63.3673 59.734 63.3673C61.2981 63.3673 62.7853 62.8101 63.9501 61.7939C63.8387 59.471 61.9137 57.6163 59.5642 57.6163C57.3142 57.6163 55.4516 59.3025 55.2048 61.506Z" fill="black"/>
<path d="M62.3172 55.5497V56.5837C62.3172 58.0969 61.0899 59.3326 59.5683 59.3326C58.0467 59.3326 56.8193 58.0969 56.8193 56.5837V55.5497C56.8193 54.0281 58.0467 52.8008 59.5683 52.8008C60.3248 52.8008 61.0142 53.1118 61.5103 53.6078C62.0061 54.1038 62.3172 54.7931 62.3172 55.5497Z" fill="#0048AD"/>
<path d="M59.569 60.012C57.6786 60.012 56.1396 58.4744 56.1396 56.5839V55.5492C56.1396 53.6587 57.6786 52.1211 59.569 52.1211C60.4805 52.1211 61.3414 52.4793 61.9902 53.128C62.6389 53.7768 62.9971 54.6378 62.9971 55.5492V56.5839C62.9971 58.4744 61.4595 60.012 59.569 60.012ZM59.569 53.4796C58.4268 53.4796 57.4981 54.4082 57.4981 55.5492V56.5839C57.4981 57.7249 58.4268 58.6535 59.569 58.6535C60.71 58.6535 61.6386 57.7249 61.6386 56.5839V55.5492C61.6386 54.9999 61.4224 54.4812 61.0297 54.0885C60.637 53.6958 60.1183 53.4796 59.569 53.4796Z" fill="black"/>
<path d="M62.5398 84.6964H59.3638C58.9884 84.6964 58.6846 84.3926 58.6846 84.0171C58.6846 83.6417 58.9884 83.3379 59.3638 83.3379H62.5398C62.9153 83.3379 63.2191 83.6417 63.2191 84.0171C63.2191 84.3926 62.9153 84.6964 62.5398 84.6964Z" fill="black"/>
<path d="M78.0559 84.6964H65.7154C65.3399 84.6964 65.0361 84.3926 65.0361 84.0171C65.0361 83.6417 65.3399 83.3379 65.7154 83.3379H78.0559C78.4313 83.3379 78.7351 83.6417 78.7351 84.0171C78.7351 84.3926 78.4313 84.6964 78.0559 84.6964Z" fill="black"/>
<path d="M70.1309 89.4386H59.3638C58.9884 89.4386 58.6846 89.1348 58.6846 88.7593C58.6846 88.3839 58.9884 88.0801 59.3638 88.0801H70.1309C70.5064 88.0801 70.8102 88.3839 70.8102 88.7593C70.8102 89.1348 70.5064 89.4386 70.1309 89.4386Z" fill="black"/>
<path d="M78.0562 89.4386H73.0826C72.7071 89.4386 72.4033 89.1348 72.4033 88.7593C72.4033 88.3839 72.7071 88.0801 73.0826 88.0801H78.0562C78.4316 88.0801 78.7354 88.3839 78.7354 88.7593C78.7354 89.1348 78.4316 89.4386 78.0562 89.4386Z" fill="black"/>
<path d="M61.6337 94.1788H59.3638C58.9884 94.1788 58.6846 93.875 58.6846 93.4996C58.6846 93.1241 58.9884 92.8203 59.3638 92.8203H61.6337C62.0092 92.8203 62.313 93.1241 62.313 93.4996C62.313 93.875 62.0092 94.1788 61.6337 94.1788Z" fill="black"/>
<path d="M78.0562 94.1788H63.9048C63.5294 94.1788 63.2256 93.875 63.2256 93.4996C63.2256 93.1241 63.5294 92.8203 63.9048 92.8203H78.0562C78.4317 92.8203 78.7355 93.1241 78.7355 93.4996C78.7355 93.875 78.4317 94.1788 78.0562 94.1788Z" fill="black"/>
<path d="M78.0559 98.919H65.7154C65.3399 98.919 65.0361 98.6152 65.0361 98.2398C65.0361 97.8643 65.3399 97.5605 65.7154 97.5605H78.0559C78.4313 97.5605 78.7351 97.8643 78.7351 98.2398C78.7351 98.6152 78.4313 98.919 78.0559 98.919Z" fill="black"/>
<path d="M90.7773 98.2402C94.7043 98.2402 97.8877 95.0568 97.8877 91.1299C97.8877 87.2029 94.7043 84.0195 90.7773 84.0195C86.8504 84.0195 83.667 87.2029 83.667 91.1299C83.667 95.0568 86.8504 98.2402 90.7773 98.2402Z" fill="#E6EDF7"/>
<path d="M90.7784 98.92C86.4827 98.92 82.9883 95.4256 82.9883 91.1299C82.9883 86.8342 86.4827 83.3398 90.7784 83.3398C95.0741 83.3398 98.5685 86.8342 98.5685 91.1299C98.5685 95.4256 95.0741 98.92 90.7784 98.92ZM90.7784 84.6983C87.2322 84.6983 84.3468 87.5838 84.3468 91.1299C84.3468 94.6761 87.2322 97.5615 90.7784 97.5615C94.3245 97.5615 97.21 94.6761 97.21 91.1299C97.21 87.5838 94.3245 84.6983 90.7784 84.6983Z" fill="black"/>
<path d="M85.8779 96.1986V96.2791C87.1514 97.4962 88.8762 98.2377 90.7783 98.2377C92.8416 98.2377 94.7035 97.3592 96.0092 95.9487C95.8802 93.2648 93.6557 91.1289 90.9476 91.1289C88.1427 91.1289 85.8779 93.4018 85.8779 96.1986Z" fill="#0048AD"/>
<path d="M90.7791 98.9159C88.7653 98.9159 86.8589 98.1531 85.4088 96.7694C85.2748 96.642 85.1992 96.4643 85.1992 96.2785V96.1976C85.1992 93.0282 87.7782 90.4492 90.9476 90.4492C94.0188 90.4492 96.5394 92.8505 96.688 95.915C96.6973 96.0981 96.6323 96.2759 96.5089 96.4099C95.0324 98.0018 92.9442 98.9159 90.7791 98.9159ZM86.563 95.984C87.7278 97.0002 89.215 97.5574 90.7791 97.5574C92.4958 97.5574 94.0931 96.8994 95.3083 95.6961C95.0602 93.4939 93.1963 91.8077 90.9476 91.8077C88.5981 91.8077 86.6745 93.6624 86.563 95.984Z" fill="black"/>
<path d="M88.1953 89.7391V90.7732C88.1953 92.2863 89.4226 93.5221 90.9443 93.5221C92.4659 93.5221 93.6932 92.2863 93.6932 90.7732V89.7391C93.6932 88.2176 92.4659 86.9902 90.9443 86.9902C90.1878 86.9902 89.4984 87.3013 89.0023 87.7972C88.5065 88.2932 88.1953 88.9826 88.1953 89.7391Z" fill="#0048AD"/>
<path d="M90.9437 94.2015C89.0532 94.2015 87.5156 92.6639 87.5156 90.7734V89.7399C87.5156 88.8285 87.8725 87.9675 88.5199 87.3175C89.17 86.6687 90.031 86.3105 90.9437 86.3105C92.8342 86.3105 94.3718 87.8495 94.3718 89.7399V90.7734C94.3718 92.6639 92.8342 94.2015 90.9437 94.2015ZM90.9437 87.669C90.3931 87.669 89.8744 87.8853 89.4817 88.278C89.0904 88.6707 88.8741 89.1907 88.8741 89.7399V90.7734C88.8741 91.9143 89.8028 92.843 90.9437 92.843C92.0846 92.843 93.0133 91.9143 93.0133 90.7734V89.7399C93.0133 88.5977 92.0846 87.669 90.9437 87.669Z" fill="black"/>
</svg>
