<svg width="154" height="154" viewBox="0 0 154 154" fill="none" xmlns="http://www.w3.org/2000/svg">
<circle opacity="0.35" cx="77" cy="77" r="77" fill="#E6EDF7"/>
<circle cx="77" cy="77" r="60" fill="#E6EDF7"/>
<path d="M108.344 69.1677C108.344 81.1096 92.7196 95.0196 84.6364 101.421C81.8195 103.638 77.962 103.638 75.1447 101.421C67.0398 95.0196 51.415 81.1096 51.415 69.1677C51.415 59.08 59.238 50.9141 68.9037 50.9141C73.0644 50.9141 76.8785 52.4304 79.8905 54.9407C82.8809 52.4072 86.6955 50.9141 90.8562 50.9141C100.521 50.9141 108.344 59.08 108.344 69.1677Z" fill="#030401"/>
<path d="M79.891 104C78.0284 104 76.1658 103.388 74.6128 102.165C65.6179 95.0597 50.5303 81.3279 50.5303 69.1737C50.5303 58.5989 58.7728 49.9961 68.9056 49.9961C72.9024 49.9961 76.6829 51.3011 79.8876 53.7776C83.049 51.3011 86.8261 49.9961 90.8574 49.9961C100.989 49.9961 109.231 58.5989 109.231 69.1737C109.231 81.2972 94.1589 95.0462 85.1745 102.163C83.618 103.387 81.7536 104 79.891 104ZM68.9056 51.8445C59.7499 51.8445 52.3012 59.6187 52.3012 69.1737C52.3012 80.9516 68.6514 95.1373 75.6798 100.69C78.1996 102.674 81.5859 102.672 84.1057 100.689C91.1255 95.1283 107.46 80.9209 107.46 69.1737C107.46 59.6187 100.011 51.8445 90.8574 51.8445C86.9991 51.8445 83.4001 53.1648 80.4496 55.6639C80.1245 55.9392 79.6628 55.9383 79.3376 55.6684C76.337 53.1666 72.7294 51.8445 68.9056 51.8445Z" fill="#030401"/>
<path d="M102.587 69.1677C102.587 81.1096 86.9618 95.0196 78.8785 101.421C76.0617 103.638 72.2042 103.638 69.3869 101.421C61.2819 95.0196 45.6572 81.1096 45.6572 69.1677C45.6572 59.08 53.4802 50.9141 63.1459 50.9141C67.3066 50.9141 71.1207 52.4304 74.1327 54.9407C77.1231 52.4072 80.9377 50.9141 85.0984 50.9141C94.7636 50.9141 102.587 59.08 102.587 69.1677Z" fill="#0048AD"/>
<path d="M74.1332 104C72.2706 104 70.408 103.388 68.855 102.165C59.8601 95.0597 44.7725 81.3279 44.7725 69.1737C44.7725 58.5989 53.015 49.9961 63.1478 49.9961C67.1445 49.9961 70.9251 51.3011 74.1298 53.7776C77.2912 51.3011 81.0683 49.9961 85.0996 49.9961C95.2307 49.9961 103.473 58.5989 103.473 69.1737C103.473 81.2972 88.4011 95.0462 79.4167 102.163C77.8602 103.387 75.9958 104 74.1332 104ZM63.1478 51.8445C53.9921 51.8445 46.5434 59.6187 46.5434 69.1737C46.5434 80.9516 62.8936 95.1373 69.922 100.69C72.4418 102.674 75.8281 102.672 78.3479 100.689C85.3677 95.1283 101.702 80.9209 101.702 69.1737C101.702 59.6187 94.2536 51.8445 85.0996 51.8445C81.2412 51.8445 77.6423 53.1648 74.6918 55.6639C74.3684 55.9392 73.9067 55.9383 73.5798 55.6684C70.5792 53.1666 66.9716 51.8445 63.1478 51.8445Z" fill="#030401"/>
</svg>
