<svg width="20" height="20" viewBox="0 0 20 20" fill="none" xmlns="http://www.w3.org/2000/svg">
<path d="M13.4668 9.15774L13.4882 9.17908H13.458H4.16634C3.93338 9.17908 3.73869 9.25774 3.58143 9.415C3.42417 9.57226 3.34551 9.76695 3.34551 9.99991C3.34551 10.2329 3.42417 10.4276 3.58143 10.5848C3.73869 10.7421 3.93338 10.8207 4.16634 10.8207L13.458 10.8207H13.4882L13.4668 10.8421L11.0918 13.2171C10.9275 13.3815 10.8491 13.5726 10.8559 13.7912C10.8628 14.0103 10.9414 14.2018 11.092 14.3663C11.2565 14.5306 11.4513 14.616 11.6771 14.6228C11.9028 14.6297 12.0974 14.5512 12.2617 14.3869L16.0742 10.5744C16.1564 10.4922 16.2143 10.4035 16.2483 10.3082C16.2825 10.2124 16.2997 10.1097 16.2997 9.99991C16.2997 9.89012 16.2825 9.78739 16.2483 9.69161C16.2143 9.59637 16.1564 9.50762 16.0742 9.42541L12.2617 5.61292C12.0974 5.44861 11.9028 5.37015 11.6771 5.37699C11.4513 5.38383 11.2565 5.4692 11.092 5.63355C10.9414 5.79801 10.8628 5.98954 10.8559 6.20863C10.8491 6.42718 10.9275 6.61835 11.0918 6.78274L13.4668 9.15774Z" fill="#030401" stroke="#030401" stroke-width="0.025"/>
</svg>
