<svg width="24" height="24" viewBox="0 0 24 24" fill="none" xmlns="http://www.w3.org/2000/svg">
<path d="M22.0625 5.4375H1.9375C1.38522 5.4375 0.9375 5.88522 0.9375 6.4375V17.5625C0.9375 18.1148 1.38521 18.5625 1.9375 18.5625H22.0625C22.6148 18.5625 23.0625 18.1148 23.0625 17.5625V6.4375C23.0625 5.88522 22.6148 5.4375 22.0625 5.4375Z" fill="#FF9350"/>
<path d="M23.0625 9.1875C20.9914 9.1875 19.3125 7.50858 19.3125 5.4375" stroke="white" stroke-width="1.5" stroke-miterlimit="10" stroke-linecap="round" stroke-linejoin="round"/>
<path d="M19.3125 18.5625C19.3125 16.4914 20.9914 14.8125 23.0625 14.8125" stroke="white" stroke-width="1.5" stroke-miterlimit="10" stroke-linecap="round" stroke-linejoin="round"/>
<path d="M0.9375 14.8125C3.00858 14.8125 4.6875 16.4914 4.6875 18.5625" stroke="white" stroke-width="1.5" stroke-miterlimit="10" stroke-linecap="round" stroke-linejoin="round"/>
<path d="M4.6875 5.4375C4.6875 7.50858 3.00858 9.1875 0.9375 9.1875" stroke="white" stroke-width="1.5" stroke-miterlimit="10" stroke-linecap="round" stroke-linejoin="round"/>
<circle cx="18.5625" cy="12" r="0.9375" fill="white"/>
<circle cx="5.625" cy="12" r="0.9375" fill="white"/>
<path d="M12 14.8125C13.5533 14.8125 14.8125 13.5533 14.8125 12C14.8125 10.4467 13.5533 9.1875 12 9.1875C10.4467 9.1875 9.1875 10.4467 9.1875 12C9.1875 13.5533 10.4467 14.8125 12 14.8125Z" stroke="white" stroke-width="1.5" stroke-miterlimit="10" stroke-linecap="round" stroke-linejoin="round"/>
</svg>
