<svg width="24" height="24" viewBox="0 0 24 24" fill="none" xmlns="http://www.w3.org/2000/svg">
<path d="M19.6721 18.1637C15.8912 11.2499 16.8947 13.0851 15.5978 10.7129V3.66627H16.0969C16.5326 3.66627 16.8858 3.29327 16.8858 2.83313C16.8858 2.373 16.5326 2 16.0969 2H7.90323C7.46752 2 7.11424 2.373 7.11424 2.83313C7.11424 3.29327 7.46748 3.66627 7.90323 3.66627H8.40228V10.7129C7.12564 13.048 7.93788 11.5625 4.32783 18.1641C3.39665 19.8687 4.5596 22 6.42563 22H17.5745C19.4412 22 20.6032 19.8683 19.6721 18.1637ZM9.98026 10.9362V3.66632H14.0199V10.9361C14.0199 11.225 14.1056 11.3161 14.5695 12.1647H9.4306C9.90485 11.2972 9.98026 11.2188 9.98026 10.9362Z" fill="#1FB76D"/>
</svg>
