<svg width="32" height="32" viewBox="0 0 32 32" fill="none" xmlns="http://www.w3.org/2000/svg">
<path d="M15.9603 2.66699C8.60029 2.66699 2.62695 8.64033 2.62695 16.0003C2.62695 23.3603 8.60029 29.3337 15.9603 29.3337C23.3203 29.3337 29.2936 23.3603 29.2936 16.0003C29.2936 8.64033 23.3336 2.66699 15.9603 2.66699ZM19.9603 18.9737L16.0936 21.2003C15.6136 21.4803 15.0803 21.6137 14.5603 21.6137C14.027 21.6137 13.507 21.4803 13.027 21.2003C12.067 20.6403 11.4936 19.6537 11.4936 18.5337V14.067C11.4936 12.9603 12.067 11.9603 13.027 11.4003C13.987 10.8403 15.1336 10.8403 16.107 11.4003L19.9736 13.627C20.9336 14.187 21.507 15.1737 21.507 16.2937C21.507 17.4137 20.9336 18.4137 19.9603 18.9737Z" fill="#0048AD"/>
</svg>
