<svg width="32" height="32" viewBox="0 0 32 32" fill="none" xmlns="http://www.w3.org/2000/svg">
<path d="M29.75 7.25H2.25C1.69772 7.25 1.25 7.69772 1.25 8.25V23.75C1.25 24.3023 1.69771 24.75 2.25 24.75H29.75C30.3023 24.75 30.75 24.3023 30.75 23.75V8.25C30.75 7.69772 30.3023 7.25 29.75 7.25Z" fill="#FF9350"/>
<path d="M30.75 12.25C27.9886 12.25 25.75 10.0114 25.75 7.25" stroke="white" stroke-width="1.5" stroke-miterlimit="10" stroke-linecap="round" stroke-linejoin="round"/>
<path d="M25.75 24.75C25.75 21.9886 27.9886 19.75 30.75 19.75" stroke="white" stroke-width="1.5" stroke-miterlimit="10" stroke-linecap="round" stroke-linejoin="round"/>
<path d="M1.25 19.75C4.01144 19.75 6.25 21.9886 6.25 24.75" stroke="white" stroke-width="1.5" stroke-miterlimit="10" stroke-linecap="round" stroke-linejoin="round"/>
<path d="M6.25 7.25C6.25 10.0114 4.01144 12.25 1.25 12.25" stroke="white" stroke-width="1.5" stroke-miterlimit="10" stroke-linecap="round" stroke-linejoin="round"/>
<circle cx="24.75" cy="16" r="1.25" fill="white"/>
<circle cx="7.5" cy="16" r="1.25" fill="white"/>
<path d="M16 19.75C18.0711 19.75 19.75 18.0711 19.75 16C19.75 13.9289 18.0711 12.25 16 12.25C13.9289 12.25 12.25 13.9289 12.25 16C12.25 18.0711 13.9289 19.75 16 19.75Z" stroke="white" stroke-width="1.5" stroke-miterlimit="10" stroke-linecap="round" stroke-linejoin="round"/>
</svg>
