<svg width="32" height="32" viewBox="0 0 32 32" fill="none" xmlns="http://www.w3.org/2000/svg">
<path d="M22.9529 8.62506L21.1821 5.0625H10.818L9.0472 8.62506H0.9375V26.8963H31.0626V8.62506H22.9529Z" fill="#5062FF"/>
<path d="M15.9998 22.9567C19.4914 22.9567 22.3219 20.1262 22.3219 16.6346C22.3219 13.143 19.4914 10.3125 15.9998 10.3125C12.5082 10.3125 9.67773 13.143 9.67773 16.6346C9.67773 20.1262 12.5082 22.9567 15.9998 22.9567Z" stroke="white" stroke-width="1.5" stroke-miterlimit="10"/>
<path d="M16 19.3105C17.4664 19.3105 18.6552 18.1217 18.6552 16.6552C18.6552 15.1888 17.4664 14 16 14C14.5335 14 13.3447 15.1888 13.3447 16.6552C13.3447 18.1217 14.5335 19.3105 16 19.3105Z" stroke="white" stroke-width="1.5" stroke-miterlimit="10"/>
<path d="M3.4375 8.62408V6.12402" stroke="#5062FF" stroke-width="1.5" stroke-miterlimit="10"/>
</svg>
