<svg width="34" height="34" viewBox="0 0 34 34" fill="none" xmlns="http://www.w3.org/2000/svg">
<path d="M9.11325 19.955L8.12701 23.6368L4.52231 23.7131C3.44503 21.7149 2.83398 19.4289 2.83398 16.9995C2.83398 14.6503 3.4053 12.435 4.418 10.4844H4.41877L7.62796 11.0727L9.03379 14.2627C8.73955 15.1205 8.57918 16.0413 8.57918 16.9995C8.57929 18.0394 8.76766 19.0358 9.11325 19.955Z" fill="#FBBB00"/>
<path d="M30.9202 14.3535C31.0829 15.2105 31.1677 16.0955 31.1677 17C31.1677 18.0143 31.0611 19.0036 30.8579 19.9579C30.1683 23.2054 28.3663 26.041 25.8701 28.0477L25.8693 28.0469L21.8271 27.8407L21.255 24.2694C22.9114 23.298 24.2059 21.7778 24.8878 19.9579H17.3125V14.3535H24.9983H30.9202Z" fill="#518EF8"/>
<path d="M25.87 28.0464L25.8707 28.0472C23.443 29.9986 20.359 31.1662 17.0018 31.1662C11.6068 31.1662 6.91622 28.1507 4.52344 23.7131L9.11438 19.9551C10.3107 23.148 13.3908 25.4209 17.0018 25.4209C18.5539 25.4209 20.0079 25.0013 21.2557 24.2689L25.87 28.0464Z" fill="#28B446"/>
<path d="M26.0432 6.09444L21.4538 9.85171C20.1625 9.04454 18.636 8.57826 17.0006 8.57826C13.3079 8.57826 10.1702 10.9554 9.03381 14.2629L4.41874 10.4846H4.41797C6.77572 5.93877 11.5254 2.83301 17.0006 2.83301C20.438 2.83301 23.5897 4.05743 26.0432 6.09444Z" fill="#F14336"/>
</svg>
