<svg width="32" height="32" viewBox="0 0 32 32" fill="none" xmlns="http://www.w3.org/2000/svg">
<g clip-path="url(#clip0_0_180)">
<path d="M31.9494 0.6865C31.8378 0.293313 31.4916 0 31.0625 0H27.3125C26.7943 0 26.375 0.419312 26.375 0.9375C26.375 1.45569 26.7943 1.875 27.3125 1.875H29.505L25.028 6.92987C18.9919 13.7579 10.1091 17.3669 1.01796 16.5768C0.519021 16.5246 0.0483958 16.9138 0.00358333 17.4301C-0.0412917 17.9455 0.340521 18.3996 0.856833 18.4444C1.7339 18.5204 2.47396 18.5579 3.34833 18.5579C12.109 18.5579 20.5868 14.7832 26.4325 8.17125L30.125 4.00375V4.6875C30.125 5.20569 30.5443 5.625 31.0625 5.625C31.5806 5.625 32 5.20569 32 4.6875V1.86263L31.9494 0.6865Z" fill="#FC4219"/>
<path d="M31.0625 30.1245H30.0625V9.04704C30.0625 8.65335 29.8162 8.30179 29.4464 8.16629C29.0774 8.03354 28.6627 8.14154 28.4082 8.44279L27.8323 9.12666C26.8802 10.2564 25.8429 11.3304 24.7479 12.3164C24.5501 12.494 24.4375 12.7475 24.4375 13.013V30.1245H22.5625V15.9382C22.5625 15.5922 22.3711 15.2735 22.0663 15.1106C21.7614 14.9495 21.3888 14.966 21.1022 15.16C19.9386 15.9419 18.7118 16.656 17.4557 17.284C17.138 17.4424 16.9375 17.7674 16.9375 18.1227V30.1245H15.0625V19.7212C15.0625 19.4163 14.9142 19.1307 14.6652 18.9549C14.4171 18.78 14.0966 18.7379 13.8101 18.8386C12.6208 19.2625 11.394 19.6223 10.1635 19.9061C9.73869 20.005 9.4375 20.3831 9.4375 20.8198V30.1245H7.5625V21.4662C7.5625 21.1989 7.44806 20.9443 7.24937 20.7667C7.04887 20.5891 6.77694 20.4985 6.51881 20.5351C5.31581 20.6724 4.08994 20.7429 2.87413 20.7447C2.35687 20.7457 1.93756 21.165 1.93756 21.6822V30.1245H0.9375C0.419312 30.1245 0 30.5438 0 31.062C0 31.5802 0.419312 31.9995 0.9375 31.9995H31.0625C31.5807 31.9995 32 31.5802 32 31.062C32 30.5438 31.5807 30.1245 31.0625 30.1245Z" fill="#FC4219"/>
</g>
<defs>
<clipPath id="clip0_0_180">
<rect width="32" height="32" fill="white"/>
</clipPath>
</defs>
</svg>
