<svg width="14" height="14" viewBox="0 0 14 14" fill="none" xmlns="http://www.w3.org/2000/svg">
<path d="M7.00009 10.6606L4.57926 12.1189C4.47231 12.187 4.36051 12.2162 4.24384 12.2064C4.12717 12.1967 4.02509 12.1578 3.93759 12.0898C3.85009 12.0217 3.78203 11.9367 3.73342 11.8346C3.68481 11.7325 3.67509 11.6182 3.70426 11.4919L4.34592 8.73561L2.20217 6.88353C2.10495 6.79603 2.04419 6.69638 2.01988 6.58457C1.99558 6.47276 2.00287 6.36339 2.04176 6.25644C2.08065 6.1495 2.13898 6.062 2.21676 5.99395C2.29453 5.92589 2.40148 5.88214 2.53759 5.8627L5.36676 5.61478L6.46051 3.01895C6.50912 2.90228 6.58447 2.81478 6.68655 2.75645C6.78863 2.69811 6.89315 2.66895 7.00009 2.66895C7.10704 2.66895 7.21155 2.69811 7.31363 2.75645C7.41572 2.81478 7.49106 2.90228 7.53967 3.01895L8.63342 5.61478L11.4626 5.8627C11.5987 5.88214 11.7056 5.92589 11.7834 5.99395C11.8612 6.062 11.9195 6.1495 11.9584 6.25644C11.9973 6.36339 12.0046 6.47276 11.9803 6.58457C11.956 6.69638 11.8952 6.79603 11.798 6.88353L9.65426 8.73561L10.2959 11.4919C10.3251 11.6182 10.3154 11.7325 10.2668 11.8346C10.2181 11.9367 10.1501 12.0217 10.0626 12.0898C9.97509 12.1578 9.87301 12.1967 9.75634 12.2064C9.63967 12.2162 9.52787 12.187 9.42092 12.1189L7.00009 10.6606Z" fill="#FFC107"/>
</svg>
