<svg width="154" height="154" viewBox="0 0 154 154" fill="none" xmlns="http://www.w3.org/2000/svg">
<circle opacity="0.35" cx="77" cy="77" r="77" fill="#E6EDF7"/>
<circle cx="77" cy="77" r="60" fill="#E6EDF7"/>
<path d="M79.1281 107.478C95.9605 107.478 109.606 93.8326 109.606 77.0002C109.606 60.1678 95.9605 46.5225 79.1281 46.5225C62.2957 46.5225 48.6504 60.1678 48.6504 77.0002C48.6504 93.8326 62.2957 107.478 79.1281 107.478Z" fill="#030401"/>
<path d="M79.1271 108.157C61.947 108.157 47.9707 94.1803 47.9707 77.0001C47.9707 59.82 61.947 45.8438 79.1271 45.8438C96.3072 45.8438 110.284 59.82 110.284 77.0001C110.284 94.1803 96.3072 108.157 79.1271 108.157ZM79.1271 47.2022C62.6965 47.2022 49.3292 60.5696 49.3292 77.0001C49.3292 93.4307 62.6965 106.798 79.1271 106.798C95.5577 106.798 108.925 93.4307 108.925 77.0001C108.925 60.5696 95.5577 47.2022 79.1271 47.2022Z" fill="#030401"/>
<path d="M74.8742 107.478C91.7066 107.478 105.352 93.8326 105.352 77.0002C105.352 60.1678 91.7066 46.5225 74.8742 46.5225C58.0418 46.5225 44.3965 60.1678 44.3965 77.0002C44.3965 93.8326 58.0418 107.478 74.8742 107.478Z" fill="#0048AD"/>
<path d="M74.8732 108.157C57.6931 108.157 43.7168 94.1803 43.7168 77.0001C43.7168 59.82 57.6931 45.8438 74.8732 45.8438C92.0533 45.8438 106.031 59.82 106.031 77.0001C106.031 94.1803 92.0533 108.157 74.8732 108.157ZM74.8732 47.2022C58.4426 47.2022 45.0753 60.5696 45.0753 77.0001C45.0753 93.4307 58.4426 106.798 74.8732 106.798C91.3051 106.798 104.672 93.4307 104.672 77.0001C104.672 60.5696 91.3051 47.2022 74.8732 47.2022Z" fill="#030401"/>
<path d="M74.8739 101.151C88.2123 101.151 99.0251 90.3382 99.0251 76.9999C99.0251 63.6615 88.2123 52.8486 74.8739 52.8486C61.5355 52.8486 50.7227 63.6615 50.7227 76.9999C50.7227 90.3382 61.5355 101.151 74.8739 101.151Z" fill="#E6EDF7"/>
<path d="M74.8739 101.831C61.1815 101.831 50.043 90.6922 50.043 76.9999C50.043 63.3075 61.1815 52.1689 74.8739 52.1689C88.5663 52.1689 99.7048 63.3075 99.7048 76.9999C99.7048 90.6922 88.5663 101.831 74.8739 101.831ZM74.8739 53.5274C61.9311 53.5274 51.4015 64.0571 51.4015 76.9999C51.4015 89.9427 61.9311 100.472 74.8739 100.472C87.8167 100.472 98.3463 89.9427 98.3463 76.9999C98.3463 64.0571 87.8167 53.5274 74.8739 53.5274Z" fill="#030401"/>
<path d="M69.4648 88.8518C67.8821 88.8518 66.298 88.2489 65.0937 87.0432L60.4263 82.3758C58.9595 80.909 58.9595 78.5327 60.4263 77.0659C61.8931 75.5991 64.2694 75.5991 65.7362 77.0659L69.4648 80.7945L84.0099 66.2495C85.4767 64.7827 87.8529 64.7827 89.3198 66.2495C90.7866 67.7164 90.7866 70.0926 89.3198 71.5594L73.836 87.0432C72.6317 88.2489 71.0476 88.8518 69.4648 88.8518Z" fill="#0048AD"/>
<path d="M69.4651 89.5316C67.6303 89.5316 65.907 88.8179 64.6148 87.5231L59.9464 82.8559C58.2177 81.1259 58.2191 78.3134 59.9464 76.5861C61.675 74.8575 64.4862 74.8549 66.2174 76.5861L69.4651 79.8338L83.5302 65.7686C85.2575 64.0413 88.0687 64.04 89.8013 65.7686C91.5286 67.4973 91.5286 70.3111 89.8013 72.0397L74.3166 87.5231C73.0245 88.8179 71.3012 89.5316 69.4651 89.5316ZM63.0812 76.6458C62.26 76.6458 61.4879 76.9656 60.9069 77.5466C59.7089 78.7446 59.7089 80.6961 60.9069 81.8954L65.5753 86.5626C66.6115 87.6013 67.9925 88.1731 69.4651 88.1731C70.9377 88.1731 72.32 87.6013 73.3562 86.5626L88.8408 71.0792C90.0388 69.8799 90.0388 67.9284 88.8408 66.7291C87.6402 65.5285 85.6887 65.5338 84.4907 66.7291L69.9453 81.2745C69.68 81.5399 69.2502 81.5399 68.9848 81.2745L65.2569 77.5466C64.6759 76.9656 63.9038 76.6458 63.0812 76.6458Z" fill="#030401"/>
</svg>
