<svg width="25" height="24" viewBox="0 0 25 24" fill="none" xmlns="http://www.w3.org/2000/svg">
<path d="M8.59991 19H8.09403C4.04697 19 2.02344 18 2.02344 13V8C2.02344 4 4.04697 2 8.09403 2H16.1881C20.2352 2 22.2587 4 22.2587 8V13C22.2587 17 20.2352 19 16.1881 19H15.6823C15.3686 19 15.0651 19.15 14.8728 19.4L13.3552 21.4C12.6874 22.28 11.5947 22.28 10.927 21.4L9.40932 19.4C9.24744 19.18 8.87308 19 8.59991 19Z" stroke="#696969" stroke-width="1.5" stroke-miterlimit="10" stroke-linecap="round" stroke-linejoin="round"/>
<path fill-rule="evenodd" clip-rule="evenodd" d="M16.1849 11H16.194H16.1849Z" fill="#696969"/>
<path d="M16.1849 11H16.194" stroke="#696969" stroke-width="2" stroke-linecap="round" stroke-linejoin="round"/>
<path d="M12.137 11H12.1461" stroke="#696969" stroke-width="2" stroke-linecap="round" stroke-linejoin="round"/>
<path d="M8.08822 11H8.0973" stroke="#696969" stroke-width="2" stroke-linecap="round" stroke-linejoin="round"/>
</svg>
