<svg width="34" height="34" viewBox="0 0 34 34" fill="none" xmlns="http://www.w3.org/2000/svg">
<path d="M25.5016 10.2748C25.3454 10.1818 25.1532 10.1754 24.9913 10.2576C24.8296 10.34 24.7203 10.4997 24.7009 10.6818C24.6817 10.8588 24.6518 11.0358 24.6144 11.2215C23.5694 16.017 21.4706 18.3495 18.1965 18.3495H13.3927C13.1394 18.35 12.9213 18.5303 12.8707 18.7812L11.2694 26.3702L10.9833 28.3022C10.8188 29.1808 11.3899 30.0279 12.2588 30.1942C12.3546 30.2125 12.4518 30.222 12.5494 30.2224H15.7626C16.4991 30.2247 17.1412 29.7165 17.3158 28.993L18.6139 23.7463H21.3991C24.686 23.7463 26.9577 21.0965 27.7956 16.2847C28.3488 13.9935 27.4336 11.5962 25.5016 10.2748Z" fill="#03A9F4"/>
<path d="M24.7013 6.07874C23.6322 4.86906 22.0979 4.16973 20.4813 4.15531H11.522C10.1812 4.14813 9.03972 5.12669 8.8451 6.45L6.06318 24.9622C5.92993 25.8464 6.54046 26.671 7.4269 26.8039C7.50734 26.816 7.58865 26.822 7.67 26.8219H11.825C12.0818 26.8215 12.3028 26.6411 12.3542 26.3902L13.8853 19.2664H18.3216C22.1715 19.2664 24.7154 16.582 25.884 11.2791C25.931 11.0677 25.9671 10.8541 25.9922 10.639C26.2635 9.00304 25.7903 7.33152 24.7013 6.07874Z" fill="#283593"/>
</svg>
