<svg width="34" height="34" viewBox="0 0 34 34" fill="none" xmlns="http://www.w3.org/2000/svg">
<g clip-path="url(#clip0_0_858)">
<path d="M31.4812 22.3376L31.1624 20.7438H27.6009L27.0343 22.3263L24.1797 22.3319C25.5386 19.0639 26.9005 15.797 28.2653 12.5314C28.4977 11.9775 28.9099 11.6956 29.5177 11.6984C29.9823 11.7027 30.7402 11.7027 31.7928 11.6998L34 22.3333L31.4812 22.3376ZM28.4027 18.5608H30.6978L29.8407 14.5658L28.4027 18.5608ZM10.0017 11.697L12.8718 11.6998L8.43483 22.339L5.52925 22.3362C4.7986 19.526 4.07704 16.7134 3.36458 13.8985C3.22292 13.3375 2.94242 12.9451 2.40267 12.7595C1.92242 12.5938 1.122 12.3388 0 11.9917V11.7013H4.58575C5.37908 11.7013 5.84233 12.0852 5.99108 12.8728C6.14125 13.6619 6.51808 15.6708 7.12442 18.8993L10.0017 11.697ZM16.8158 11.6998L14.5463 22.3362L11.815 22.3333L14.0817 11.697L16.8158 11.6998ZM22.355 11.5029C23.1724 11.5029 24.2023 11.7579 24.7945 11.9917L24.3157 14.1974C23.7802 13.9821 22.899 13.6917 22.1581 13.7016C21.0814 13.72 20.4156 14.1719 20.4156 14.6054C20.4156 15.3109 21.5716 15.6665 22.7616 16.4372C24.1202 17.3155 24.2987 18.1046 24.2817 18.9617C24.2632 20.741 22.7616 22.4963 19.5939 22.4963C18.1489 22.475 17.6276 22.3532 16.4489 21.9353L16.9476 19.6332C18.1475 20.1361 18.6561 20.2962 19.6817 20.2962C20.621 20.2962 21.4271 19.9165 21.4342 19.2549C21.4398 18.7846 21.1508 18.5508 20.0968 17.97C19.0428 17.3878 17.5638 16.5817 17.5837 14.9638C17.6077 12.8927 19.5698 11.5029 22.3564 11.5029H22.355Z" fill="#2270A8"/>
</g>
<defs>
<clipPath id="clip0_0_858">
<rect width="34" height="34" fill="white"/>
</clipPath>
</defs>
</svg>
