<svg width="32" height="32" viewBox="0 0 32 32" fill="none" xmlns="http://www.w3.org/2000/svg">
<g clip-path="url(#clip0_1101_2013)">
<path d="M25.3195 10.8302L27.3193 7.23063C27.4195 7.24294 27.5214 7.25 27.6249 7.25C29.0034 7.25 30.1249 6.1285 30.1249 4.75C30.1249 3.3715 29.0034 2.25 27.6249 2.25C26.2464 2.25 25.1249 3.3715 25.1249 4.75C25.1249 5.34394 25.3335 5.88981 25.6807 6.31919L23.9484 9.43744H21.25V11.3124H24.5C24.8405 11.3124 25.1542 11.1279 25.3195 10.8302Z" fill="#D250FF"/>
<path d="M29.5 13.5C28.4529 13.5 27.5547 14.1473 27.1831 15.0625H21.25V16.9375H27.1831C27.5547 17.8527 28.4529 18.5 29.5 18.5C30.8785 18.5 32 17.3785 32 16C32 14.6215 30.8785 13.5 29.5 13.5Z" fill="#D250FF"/>
<path d="M27.625 24.75C27.5214 24.75 27.4196 24.7571 27.3193 24.7694L25.3196 21.1698C25.1542 20.8721 24.8405 20.6875 24.5 20.6875H21.25V22.5625H23.9484L25.6807 25.6808C25.3336 26.1102 25.125 26.6561 25.125 27.25C25.125 28.6285 26.2465 29.75 27.625 29.75C29.0035 29.75 30.125 28.6285 30.125 27.25C30.125 25.8715 29.0035 24.75 27.625 24.75Z" fill="#D250FF"/>
<path d="M14.0625 0.0625C12.8478 0.0625 11.6604 0.483562 10.7191 1.24812C10.0411 1.79881 9.50969 2.51056 9.17181 3.30744C8.72262 3.22769 8.268 3.1875 7.8125 3.1875C3.50469 3.1875 0 6.69219 0 11C0 12.7023 0.551813 14.337 1.56856 15.6861C0.961688 16.4926 0.625 17.48 0.625 18.5C0.625 19.6276 1.03181 20.7169 1.77044 21.5672C2.30594 22.1838 2.99037 22.6466 3.75012 22.9154C3.77169 25.8014 6.1065 28.1473 8.98831 28.187C9.66188 30.3766 11.7071 31.9375 14.0625 31.9375C16.9918 31.9375 19.375 29.5543 19.375 26.625V16.5759C18.3121 17.5746 16.8826 18.1875 15.3125 18.1875C14.7947 18.1875 14.375 17.7678 14.375 17.25C14.375 16.7322 14.7947 16.3125 15.3125 16.3125C17.5526 16.3125 19.375 14.4901 19.375 12.25V5.375C19.375 2.44569 16.9918 0.0625 14.0625 0.0625ZM10.2432 9.89519C9.87706 10.2613 9.2835 10.2613 8.91737 9.89519C8.30812 9.28594 7.31687 9.28594 6.70769 9.89519C6.0985 10.5044 6.09844 11.4957 6.70769 12.1049C7.07381 12.471 7.07381 13.0646 6.70769 13.4307C6.34156 13.7968 5.748 13.7968 5.38188 13.4307C4.04163 12.0904 4.04163 9.90962 5.38188 8.56931C6.72219 7.229 8.90294 7.229 10.2432 8.56931C10.6093 8.93544 10.6093 9.52906 10.2432 9.89519ZM15 22.875C15 23.3928 14.5803 23.8125 14.0625 23.8125C12.1671 23.8125 10.625 22.2704 10.625 20.375C10.625 19.8572 11.0447 19.4375 11.5625 19.4375C12.0803 19.4375 12.5 19.8572 12.5 20.375C12.5 21.2366 13.2009 21.9375 14.0625 21.9375C14.5803 21.9375 15 22.3572 15 22.875ZM12.1875 13.1875C11.6697 13.1875 11.25 12.7678 11.25 12.25C11.25 11.7322 11.6697 11.3125 12.1875 11.3125C13.0491 11.3125 13.75 10.6116 13.75 9.75C13.75 9.23225 14.1697 8.8125 14.6875 8.8125C15.2053 8.8125 15.625 9.23225 15.625 9.75C15.625 11.6454 14.0829 13.1875 12.1875 13.1875Z" fill="#D250FF"/>
</g>
<defs>
<clipPath id="clip0_1101_2013">
<rect width="32" height="32" fill="white"/>
</clipPath>
</defs>
</svg>
