<svg width="154" height="154" viewBox="0 0 154 154" fill="none" xmlns="http://www.w3.org/2000/svg">
<circle opacity="0.35" cx="77" cy="77" r="77" fill="#252525"/>
<circle cx="77" cy="77" r="60" fill="#252525"/>
<path d="M100.718 78.7397H91.3778V104.553H91.3347L96.9054 109.321C97.6783 109.978 98.8634 109.424 98.8634 108.406V105.018C98.8634 104.361 99.3916 103.833 100.049 103.833H100.718C104.08 103.833 106.811 101.102 106.811 97.7402V84.8327C106.811 81.4577 104.08 78.7397 100.718 78.7397Z" fill="black"/>
<path d="M97.6682 110.285C97.237 110.285 96.8125 110.133 96.4662 109.838L90.893 105.069C90.6767 104.884 90.5985 104.585 90.698 104.318V78.74C90.698 78.3646 91.0018 78.0608 91.3772 78.0608H100.718C104.453 78.0608 107.491 81.0988 107.491 84.832V97.7403C107.491 101.475 104.453 104.513 100.718 104.513H100.048C99.7643 104.513 99.5427 104.734 99.5427 105.018V108.407C99.5427 109.147 99.1262 109.8 98.4562 110.11C98.2015 110.227 97.9335 110.285 97.6682 110.285ZM92.0564 104.277L97.3471 108.805C97.5687 108.993 97.7969 108.919 97.8858 108.876C97.9746 108.835 98.1842 108.706 98.1842 108.407V105.018C98.1842 103.99 99.02 103.154 100.048 103.154H100.718C103.703 103.154 106.132 100.725 106.132 97.7403V84.832C106.132 81.8471 103.703 79.4193 100.718 79.4193H92.0564V104.277Z" fill="black"/>
<path d="M95.6412 44.3977H78.9766V69.4912H95.6412C99.0033 69.4912 101.734 66.7602 101.734 63.3982V50.4907C101.734 47.1157 99.0033 44.3977 95.6412 44.3977Z" fill="black"/>
<path d="M95.6412 70.1699H78.9771C78.6017 70.1699 78.2979 69.8661 78.2979 69.4906V44.397C78.2979 44.0216 78.6017 43.7178 78.9771 43.7178H95.6412C99.3757 43.7178 102.414 46.7558 102.414 50.4903V63.3986C102.414 67.1318 99.3757 70.1699 95.6412 70.1699ZM79.6563 68.8114H95.6412C98.6261 68.8114 101.055 66.3836 101.055 63.3986V50.4903C101.055 47.5054 98.6261 45.0763 95.6412 45.0763H79.6563V68.8114Z" fill="black"/>
<path d="M96.5832 50.4934V63.3991C96.5832 66.7546 93.8526 69.4851 90.4836 69.4851H63.9522C63.667 69.4851 63.3953 69.5938 63.1779 69.7704L57.1054 74.9734C56.3311 75.6391 55.1356 75.0821 55.1356 74.0633V70.6806C55.1356 70.0149 54.6194 69.4851 53.9537 69.4851H53.2881C49.919 69.4851 47.1885 66.7546 47.1885 63.3991V50.4934C47.1885 47.1108 49.919 44.3938 53.2881 44.3938H90.4836C93.8526 44.3938 96.5832 47.1108 96.5832 50.4934Z" fill="#909090"/>
<path d="M56.3363 75.9434C56.0723 75.9434 55.8043 75.8864 55.5509 75.7696C54.8756 75.4592 54.4564 74.8065 54.4564 74.0636V70.6806C54.4564 70.3861 54.2402 70.1645 53.9536 70.1645H53.2876C49.5504 70.1645 46.5098 67.1292 46.5098 63.3986V50.4929C46.5098 46.7558 49.5504 43.7151 53.2876 43.7151H90.4843C94.2214 43.7151 97.2621 46.7558 97.2621 50.4929V63.3986C97.2621 67.1292 94.2214 70.1645 90.4843 70.1645H63.9526C63.8345 70.1645 63.7124 70.2123 63.605 70.2985L57.5475 75.4897C57.1999 75.7882 56.7714 75.9434 56.3363 75.9434ZM53.2876 45.0736C50.3 45.0736 47.8683 47.5053 47.8683 50.4929V63.3986C47.8683 66.3809 50.3 68.806 53.2876 68.806H53.9536C54.9977 68.806 55.8149 69.6299 55.8149 70.6806V74.0636C55.8149 74.3727 56.0471 74.5027 56.1173 74.5345C56.2076 74.577 56.4397 74.6499 56.6626 74.4589L62.736 69.2544C63.0969 68.9613 63.5241 68.806 63.9526 68.806H90.4843C93.4719 68.806 95.9036 66.3809 95.9036 63.3986V50.4929C95.9036 47.5053 93.4719 45.0736 90.4843 45.0736H53.2876Z" fill="black"/>
<path d="M91.1487 50.5077H87.9727C87.5973 50.5077 87.2935 50.2039 87.2935 49.8284C87.2935 49.453 87.5973 49.1492 87.9727 49.1492H91.1487C91.5241 49.1492 91.828 49.453 91.828 49.8284C91.828 50.2039 91.5241 50.5077 91.1487 50.5077Z" fill="black"/>
<path d="M84.7958 50.5077H72.4566C72.0811 50.5077 71.7773 50.2039 71.7773 49.8284C71.7773 49.453 72.0811 49.1492 72.4566 49.1492H84.7958C85.1712 49.1492 85.475 49.453 85.475 49.8284C85.475 50.2039 85.1712 50.5077 84.7958 50.5077Z" fill="black"/>
<path d="M91.1488 55.2489H80.3804C80.005 55.2489 79.7012 54.9451 79.7012 54.5696C79.7012 54.1942 80.005 53.8904 80.3804 53.8904H91.1488C91.5243 53.8904 91.8281 54.1942 91.8281 54.5696C91.8281 54.9451 91.5243 55.2489 91.1488 55.2489Z" fill="black"/>
<path d="M77.4302 55.2489H72.4566C72.0811 55.2489 71.7773 54.9451 71.7773 54.5696C71.7773 54.1942 72.0811 53.8904 72.4566 53.8904H77.4302C77.8056 53.8904 78.1094 54.1942 78.1094 54.5696C78.1094 54.9451 77.8056 55.2489 77.4302 55.2489Z" fill="black"/>
<path d="M91.1487 59.9891H88.8775C88.502 59.9891 88.1982 59.6853 88.1982 59.3099C88.1982 58.9344 88.502 58.6306 88.8775 58.6306H91.1487C91.5242 58.6306 91.828 58.9344 91.828 59.3099C91.828 59.6853 91.5242 59.9891 91.1487 59.9891Z" fill="black"/>
<path d="M86.608 59.9891H72.4566C72.0811 59.9891 71.7773 59.6853 71.7773 59.3099C71.7773 58.9344 72.0811 58.6306 72.4566 58.6306H86.608C86.9834 58.6306 87.2872 58.9344 87.2872 59.3099C87.2872 59.6853 86.9834 59.9891 86.608 59.9891Z" fill="black"/>
<path d="M84.7958 64.7306H72.4566C72.0811 64.7306 71.7773 64.4268 71.7773 64.0513C71.7773 63.6759 72.0811 63.3721 72.4566 63.3721H84.7958C85.1712 63.3721 85.475 63.6759 85.475 64.0513C85.475 64.4268 85.1712 64.7306 84.7958 64.7306Z" fill="black"/>
<path d="M102.615 84.8362V97.7418C102.615 101.097 99.8845 103.828 96.529 103.828H95.8497C95.1977 103.828 94.6679 104.358 94.6679 105.023V108.406C94.6679 109.425 93.486 109.982 92.7116 109.316L86.6256 104.113C86.4083 103.937 86.1366 103.828 85.8513 103.828H59.32C55.9645 103.828 53.2339 101.097 53.2339 97.7418V84.8362C53.2339 81.4536 55.9645 78.7366 59.32 78.7366H96.529C99.8845 78.7366 102.615 81.4536 102.615 84.8362Z" fill="#909090"/>
<path d="M93.4787 110.285C93.0449 110.285 92.6177 110.131 92.2701 109.833L86.1835 104.63C86.0919 104.554 85.9686 104.508 85.8518 104.508H59.3201C55.5896 104.508 52.5542 101.472 52.5542 97.7417V84.8361C52.5542 81.0976 55.5896 78.0569 59.3201 78.0569H96.5287C100.259 78.0569 103.295 81.0976 103.295 84.8361V97.7417C103.295 101.472 100.259 104.508 96.5287 104.508H95.8495C95.5669 104.508 95.3467 104.735 95.3467 105.024V108.407C95.3467 109.151 94.9288 109.805 94.2575 110.114C94.0054 110.229 93.7401 110.285 93.4787 110.285ZM59.3201 79.4154C56.3378 79.4154 53.9127 81.8471 53.9127 84.8361V97.7417C53.9127 100.724 56.3378 103.149 59.3201 103.149H85.8518C86.2816 103.149 86.7088 103.304 87.0551 103.587L93.1537 108.801C93.3779 108.993 93.6048 108.92 93.6897 108.879C93.76 108.847 93.9882 108.717 93.9882 108.407V105.024C93.9882 103.99 94.8226 103.149 95.8495 103.149H96.5287C99.511 103.149 101.936 100.724 101.936 97.7417V84.8361C101.936 81.8471 99.511 79.4154 96.5287 79.4154H59.3201Z" fill="black"/>
<path d="M59.7339 64.051C63.6608 64.051 66.8442 60.8676 66.8442 56.9407C66.8442 53.0137 63.6608 49.8303 59.7339 49.8303C55.8069 49.8303 52.6235 53.0137 52.6235 56.9407C52.6235 60.8676 55.8069 64.051 59.7339 64.051Z" fill="#909090"/>
<path d="M59.7339 64.7306C55.4382 64.7306 51.9438 61.2362 51.9438 56.9405C51.9438 52.6448 55.4382 49.1504 59.7339 49.1504C64.0296 49.1504 67.524 52.6448 67.524 56.9405C67.524 61.2362 64.0296 64.7306 59.7339 64.7306ZM59.7339 50.5089C56.1878 50.5089 53.3023 53.3943 53.3023 56.9405C53.3023 60.4866 56.1878 63.3721 59.7339 63.3721C63.2801 63.3721 66.1655 60.4866 66.1655 56.9405C66.1655 53.3943 63.2801 50.5089 59.7339 50.5089Z" fill="black"/>
<path d="M64.6347 62.0081V62.0887C63.3612 63.3058 61.6364 64.0473 59.7343 64.0473C57.671 64.0473 55.8091 63.1688 54.5034 61.7583C54.6324 59.0743 56.8569 56.9385 59.565 56.9385C62.3699 56.9385 64.6347 59.2114 64.6347 62.0081Z" fill="#0048AD"/>
<path d="M59.734 64.7266C57.5676 64.7266 55.4794 63.8125 54.0042 62.2205C53.8808 62.0865 53.8158 61.9088 53.8251 61.7257C53.971 58.6598 56.493 56.2585 59.5642 56.2585C62.7349 56.2585 65.3139 58.8376 65.3139 62.0083V62.0892C65.3139 62.2749 65.2383 62.4527 65.1043 62.58C63.6556 63.9637 61.7479 64.7266 59.734 64.7266ZM55.2048 61.5068C56.4068 62.6928 58.0412 63.3681 59.734 63.3681C61.2981 63.3681 62.7853 62.8109 63.9501 61.7947C63.8387 59.4717 61.9137 57.617 59.5642 57.617C57.3142 57.617 55.4516 59.3032 55.2048 61.5068Z" fill="black"/>
<path d="M62.3177 55.5507V56.5847C62.3177 58.0979 61.0904 59.3336 59.5688 59.3336C58.0471 59.3336 56.8198 58.0979 56.8198 56.5847V55.5507C56.8198 54.0291 58.0471 52.8018 59.5688 52.8018C60.3253 52.8018 61.0147 53.1128 61.5107 53.6088C62.0066 54.1048 62.3177 54.7941 62.3177 55.5507Z" fill="#0048AD"/>
<path d="M59.5695 60.013C57.6791 60.013 56.1401 58.4754 56.1401 56.5849V55.5501C56.1401 53.6597 57.6791 52.1221 59.5695 52.1221C60.4809 52.1221 61.3419 52.4803 61.9907 53.129C62.6394 53.7777 62.9976 54.6387 62.9976 55.5501V56.5849C62.9976 58.4754 61.46 60.013 59.5695 60.013ZM59.5695 53.4806C58.4273 53.4806 57.4986 54.4092 57.4986 55.5501V56.5849C57.4986 57.7258 58.4273 58.6545 59.5695 58.6545C60.7104 58.6545 61.6391 57.7258 61.6391 56.5849V55.5501C61.6391 55.0009 61.4229 54.4822 61.0302 54.0895C60.6375 53.6968 60.1188 53.4806 59.5695 53.4806Z" fill="black"/>
<path d="M62.5398 84.6966H59.3638C58.9884 84.6966 58.6846 84.3928 58.6846 84.0174C58.6846 83.6419 58.9884 83.3381 59.3638 83.3381H62.5398C62.9153 83.3381 63.2191 83.6419 63.2191 84.0174C63.2191 84.3928 62.9153 84.6966 62.5398 84.6966Z" fill="black"/>
<path d="M78.0564 84.6966H65.7159C65.3404 84.6966 65.0366 84.3928 65.0366 84.0174C65.0366 83.6419 65.3404 83.3381 65.7159 83.3381H78.0564C78.4318 83.3381 78.7356 83.6419 78.7356 84.0174C78.7356 84.3928 78.4318 84.6966 78.0564 84.6966Z" fill="black"/>
<path d="M70.1309 89.4381H59.3638C58.9884 89.4381 58.6846 89.1343 58.6846 88.7588C58.6846 88.3834 58.9884 88.0796 59.3638 88.0796H70.1309C70.5064 88.0796 70.8102 88.3834 70.8102 88.7588C70.8102 89.1343 70.5064 89.4381 70.1309 89.4381Z" fill="black"/>
<path d="M78.0562 89.4381H73.0826C72.7071 89.4381 72.4033 89.1343 72.4033 88.7588C72.4033 88.3834 72.7071 88.0796 73.0826 88.0796H78.0562C78.4316 88.0796 78.7354 88.3834 78.7354 88.7588C78.7354 89.1343 78.4316 89.4381 78.0562 89.4381Z" fill="black"/>
<path d="M61.6337 94.1783H59.3638C58.9884 94.1783 58.6846 93.8745 58.6846 93.4991C58.6846 93.1236 58.9884 92.8198 59.3638 92.8198H61.6337C62.0092 92.8198 62.313 93.1236 62.313 93.4991C62.313 93.8745 62.0092 94.1783 61.6337 94.1783Z" fill="black"/>
<path d="M78.0562 94.1783H63.9048C63.5294 94.1783 63.2256 93.8745 63.2256 93.4991C63.2256 93.1236 63.5294 92.8198 63.9048 92.8198H78.0562C78.4317 92.8198 78.7355 93.1236 78.7355 93.4991C78.7355 93.8745 78.4317 94.1783 78.0562 94.1783Z" fill="black"/>
<path d="M78.0564 98.9198H65.7159C65.3404 98.9198 65.0366 98.616 65.0366 98.2405C65.0366 97.8651 65.3404 97.5613 65.7159 97.5613H78.0564C78.4318 97.5613 78.7356 97.8651 78.7356 98.2405C78.7356 98.616 78.4318 98.9198 78.0564 98.9198Z" fill="black"/>
<path d="M90.7783 98.2402C94.7052 98.2402 97.8886 95.0568 97.8886 91.1299C97.8886 87.2029 94.7052 84.0195 90.7783 84.0195C86.8514 84.0195 83.668 87.2029 83.668 91.1299C83.668 95.0568 86.8514 98.2402 90.7783 98.2402Z" fill="#909090"/>
<path d="M90.7789 98.9198C86.4832 98.9198 82.9888 95.4254 82.9888 91.1297C82.9888 86.834 86.4832 83.3396 90.7789 83.3396C95.0746 83.3396 98.569 86.834 98.569 91.1297C98.569 95.4254 95.0746 98.9198 90.7789 98.9198ZM90.7789 84.6981C87.2327 84.6981 84.3473 87.5836 84.3473 91.1297C84.3473 94.6758 87.2327 97.5613 90.7789 97.5613C94.325 97.5613 97.2105 94.6758 97.2105 91.1297C97.2105 87.5836 94.325 84.6981 90.7789 84.6981Z" fill="black"/>
<path d="M85.8779 96.1973V96.2779C87.1514 97.495 88.8762 98.2365 90.7783 98.2365C92.8416 98.2365 94.7035 97.358 96.0092 95.9475C95.8802 93.2635 93.6557 91.1277 90.9476 91.1277C88.1427 91.1277 85.8779 93.4006 85.8779 96.1973Z" fill="#0048AD"/>
<path d="M90.7786 98.9157C88.7648 98.9157 86.8584 98.1528 85.4083 96.7691C85.2743 96.6418 85.1987 96.464 85.1987 96.2783V96.1974C85.1987 93.028 87.7777 90.449 90.9471 90.449C94.0183 90.449 96.5389 92.8502 96.6875 95.9148C96.6968 96.0979 96.6318 96.2756 96.5084 96.4096C95.0319 98.0016 92.9437 98.9157 90.7786 98.9157ZM86.5625 95.9838C87.7273 97 89.2145 97.5572 90.7786 97.5572C92.4953 97.5572 94.0926 96.8992 95.3078 95.6959C95.0597 93.4936 93.1958 91.8075 90.9471 91.8075C88.5976 91.8075 86.674 93.6621 86.5625 95.9838Z" fill="black"/>
<path d="M88.1948 89.7401V90.7742C88.1948 92.2873 89.4221 93.5231 90.9438 93.5231C92.4654 93.5231 93.6927 92.2873 93.6927 90.7742V89.7401C93.6927 88.2185 92.4654 86.9912 90.9438 86.9912C90.1873 86.9912 89.4979 87.3022 89.0018 87.7982C88.506 88.2942 88.1948 88.9836 88.1948 89.7401Z" fill="#0048AD"/>
<path d="M90.9432 94.2022C89.0527 94.2022 87.5151 92.6646 87.5151 90.7741V89.7407C87.5151 88.8293 87.872 87.9683 88.5194 87.3182C89.1695 86.6695 90.0305 86.3113 90.9432 86.3113C92.8337 86.3113 94.3713 87.8502 94.3713 89.7407V90.7741C94.3713 92.6646 92.8337 94.2022 90.9432 94.2022ZM90.9432 87.6698C90.3926 87.6698 89.8739 87.886 89.4812 88.2787C89.0899 88.6714 88.8736 89.1914 88.8736 89.7407V90.7741C88.8736 91.9151 89.8023 92.8437 90.9432 92.8437C92.0841 92.8437 93.0128 91.9151 93.0128 90.7741V89.7407C93.0128 88.5984 92.0841 87.6698 90.9432 87.6698Z" fill="black"/>
</svg>
