<svg width="154" height="154" viewBox="0 0 154 154" fill="none" xmlns="http://www.w3.org/2000/svg">
<circle opacity="0.35" cx="77" cy="77" r="77" fill="#252525"/>
<circle cx="77" cy="77" r="60" fill="#252525"/>
<path d="M96.467 50.2784H90.2587C90.2315 48.92 89.1311 47.8468 87.7863 47.8468H85.3138C85.0421 47.8468 84.7976 47.6974 84.6753 47.4664L83.7651 45.7003C83.3576 44.8989 82.5425 44.3962 81.6458 44.3962H75.2202V109.604H96.467C100.801 109.604 104.319 106.085 104.319 101.765V58.1306C104.319 53.797 100.801 50.2784 96.467 50.2784Z" fill="black"/>
<path d="M96.4666 110.283H75.2203C74.8448 110.283 74.541 109.979 74.541 109.604V44.3963C74.541 44.0208 74.8448 43.717 75.2203 43.717H81.6466C82.8021 43.717 83.8448 44.3591 84.3702 45.3926L85.2789 47.1557L87.7863 47.1677C89.2894 47.1677 90.5311 48.1925 90.8562 49.5994H96.4666C101.171 49.5994 104.998 53.4261 104.998 58.1304V101.765C104.998 106.462 101.171 110.283 96.4666 110.283ZM75.8995 108.925H96.4666C100.421 108.925 103.64 105.713 103.64 101.765V58.1304C103.64 54.1757 100.421 50.9579 96.4666 50.9579H90.2592C89.889 50.9579 89.5879 50.6621 89.5799 50.2926C89.56 49.3022 88.772 48.5262 87.7863 48.5262H85.3134C84.7907 48.5262 84.3171 48.2416 84.0743 47.7846L83.1616 46.0115C82.8671 45.4331 82.2873 45.0755 81.6466 45.0755H75.8995V108.925Z" fill="black"/>
<path d="M100.244 58.1306V101.765C100.244 106.085 96.7252 109.604 92.3916 109.604H57.5327C53.1991 109.604 49.6807 106.085 49.6807 101.765V58.1306C49.6807 53.797 53.1991 50.2784 57.5327 50.2784H92.3916C96.7252 50.2784 100.244 53.797 100.244 58.1306Z" fill="#0048AD"/>
<path d="M92.3909 110.283H57.5332C52.8289 110.283 49.0015 106.462 49.0015 101.765V58.1304C49.0015 53.4261 52.8289 49.5994 57.5332 49.5994H92.3909C97.0952 49.5994 100.923 53.4261 100.923 58.1304V101.765C100.923 106.462 97.0952 110.283 92.3909 110.283ZM57.5332 50.9579C53.5784 50.9579 50.36 54.1756 50.36 58.1304V101.765C50.36 105.713 53.5784 108.925 57.5332 108.925H92.3909C96.3457 108.925 99.5641 105.713 99.5641 101.765V58.1304C99.5641 54.1756 96.3457 50.9579 92.3909 50.9579H57.5332Z" fill="black"/>
<path d="M94.8098 58.0083V93.3019L83.711 104.17H57.4106C56.1472 104.17 55.1147 103.137 55.1147 101.874V58.0083C55.1147 56.7449 56.1472 55.7124 57.4106 55.7124H92.5139C93.7773 55.7124 94.8098 56.7449 94.8098 58.0083Z" fill="#909090"/>
<path d="M83.7108 104.849H57.4099C55.7702 104.849 54.4355 103.514 54.4355 101.874V58.0083C54.4355 56.3679 55.7702 55.0333 57.4099 55.0333H92.5144C94.1542 55.0333 95.4888 56.3679 95.4888 58.0083V93.3019C95.4888 93.4843 95.4158 93.6594 95.2845 93.7875L84.1857 104.655C84.0597 104.779 83.8885 104.849 83.7108 104.849ZM57.4099 56.3918C56.5184 56.3918 55.794 57.1168 55.794 58.0083V101.874C55.794 102.766 56.5184 103.491 57.4099 103.491H83.4335L94.1303 93.0167V58.0083C94.1303 57.1168 93.4059 56.3918 92.5144 56.3918H57.4099Z" fill="#030401"/>
<path d="M94.8093 93.3019L83.7104 104.17V95.6248C83.7104 94.3343 84.7429 93.3019 86.0335 93.3019H94.8093Z" fill="#909090"/>
<path d="M83.7105 104.849C83.6216 104.849 83.5327 104.832 83.4478 104.796C83.1958 104.69 83.0312 104.443 83.0312 104.17V95.6249C83.0312 93.9692 84.3778 92.6227 86.0335 92.6227H94.8093C95.0852 92.6227 95.3333 92.7898 95.4381 93.0452C95.5429 93.3006 95.4819 93.5945 95.2842 93.7875L84.1854 104.655C84.0568 104.782 83.8843 104.849 83.7105 104.849ZM86.0335 93.9812C85.1114 93.9812 84.3897 94.7029 84.3897 95.6249V102.554L93.1443 93.9812H86.0335Z" fill="#030401"/>
<path d="M86.1966 50.3464V55.4272C86.1966 56.8129 85.0826 57.9268 83.7105 57.9268H64.0124C62.6403 57.9268 61.5264 56.8129 61.5264 55.4272V50.3464C61.5264 48.9607 62.6403 47.8468 64.0124 47.8468H66.4849C66.7566 47.8468 67.0011 47.6974 67.1233 47.4664L68.0336 45.7003C68.4411 44.8989 69.2562 44.3962 70.1528 44.3962H77.5701C78.4668 44.3962 79.2818 44.8989 79.6894 45.7003L80.5996 47.4664C80.7218 47.6974 80.9664 47.8468 81.2381 47.8468H83.7105C85.0826 47.8468 86.1966 48.9607 86.1966 50.3464Z" fill="#909090"/>
<path d="M83.7107 58.606H64.0126C62.2667 58.606 60.8472 57.1799 60.8472 55.4274V50.3463C60.8472 48.5938 62.2667 47.1677 64.0126 47.1677H66.4854L67.43 45.3893C67.954 44.3591 68.9981 43.717 70.1536 43.717H77.5709C78.7264 43.717 79.7692 44.3591 80.2945 45.3926L81.2033 47.1557L83.7107 47.1677C85.4565 47.1677 86.8761 48.5938 86.8761 50.3463V55.4274C86.8761 57.1799 85.4565 58.606 83.7107 58.606ZM64.0126 48.5262C63.0162 48.5262 62.2057 49.3427 62.2057 50.3463V55.4274C62.2057 56.431 63.0162 57.2476 64.0126 57.2476H83.7107C84.707 57.2476 85.5176 56.431 85.5176 55.4274V50.3463C85.5176 49.3427 84.707 48.5262 83.7107 48.5262H81.2378C80.7151 48.5262 80.2415 48.2416 79.9987 47.7846L79.086 46.0115C78.7914 45.4331 78.2117 45.0755 77.5709 45.0755H70.1536C69.5115 45.0755 68.9318 45.4331 68.6386 46.0082L67.7272 47.7779C67.4817 48.2416 67.0081 48.5262 66.4854 48.5262H64.0126Z" fill="black"/>
<path d="M82.6774 51.6982H65.4986C65.1231 51.6982 64.8193 51.3944 64.8193 51.019C64.8193 50.6435 65.1231 50.3397 65.4986 50.3397H82.6774C83.0528 50.3397 83.3566 50.6435 83.3566 51.019C83.3566 51.3944 83.0528 51.6982 82.6774 51.6982Z" fill="#030401"/>
<path d="M82.6774 54.9247H65.4986C65.1231 54.9247 64.8193 54.6208 64.8193 54.2454C64.8193 53.87 65.1231 53.5662 65.4986 53.5662H82.6774C83.0528 53.5662 83.3566 53.87 83.3566 54.2454C83.3566 54.6208 83.0528 54.9247 82.6774 54.9247Z" fill="#030401"/>
<path d="M84.5026 65.1133H66.2837C65.9083 65.1133 65.6045 64.8094 65.6045 64.434C65.6045 64.0586 65.9083 63.7548 66.2837 63.7548H84.5026C84.8781 63.7548 85.1819 64.0586 85.1819 64.434C85.1819 64.8094 84.8781 65.1133 84.5026 65.1133Z" fill="#030401"/>
<path d="M89.2599 71.5661H69.5313C69.1559 71.5661 68.8521 71.2623 68.8521 70.8869C68.8521 70.5114 69.1559 70.2076 69.5313 70.2076H89.2599C89.6354 70.2076 89.9392 70.5114 89.9392 70.8869C89.9392 71.2623 89.6354 71.5661 89.2599 71.5661Z" fill="#030401"/>
<path d="M66.2838 71.5661H61.5264C61.151 71.5661 60.8472 71.2623 60.8472 70.8869C60.8472 70.5114 61.151 70.2076 61.5264 70.2076H66.2838C66.6592 70.2076 66.963 70.5114 66.963 70.8869C66.963 71.2623 66.6592 71.5661 66.2838 71.5661Z" fill="#030401"/>
<path d="M89.2599 78.0189H84.5025C84.127 78.0189 83.8232 77.7151 83.8232 77.3396C83.8232 76.9642 84.127 76.6604 84.5025 76.6604H89.2599C89.6353 76.6604 89.9391 76.9642 89.9391 77.3396C89.9391 77.7151 89.6353 78.0189 89.2599 78.0189Z" fill="#030401"/>
<path d="M81.1635 78.0189H61.5264C61.151 78.0189 60.8472 77.7151 60.8472 77.3396C60.8472 76.9642 61.151 76.6604 61.5264 76.6604H81.1635C81.5389 76.6604 81.8427 76.9642 81.8427 77.3396C81.8427 77.7151 81.5389 78.0189 81.1635 78.0189Z" fill="#030401"/>
<path d="M89.2602 84.4718H76.3082C75.9327 84.4718 75.6289 84.168 75.6289 83.7925C75.6289 83.4171 75.9327 83.1133 76.3082 83.1133H89.2602C89.6357 83.1133 89.9395 83.4171 89.9395 83.7925C89.9395 84.168 89.6357 84.4718 89.2602 84.4718Z" fill="#030401"/>
<path d="M73.0975 84.4718H61.5264C61.151 84.4718 60.8472 84.168 60.8472 83.7925C60.8472 83.4171 61.151 83.1133 61.5264 83.1133H73.0975C73.4729 83.1133 73.7767 83.4171 73.7767 83.7925C73.7767 84.168 73.4729 84.4718 73.0975 84.4718Z" fill="#030401"/>
<path d="M89.2599 90.9245H83.7105C83.3351 90.9245 83.0312 90.6207 83.0312 90.2453C83.0312 89.8698 83.3351 89.566 83.7105 89.566H89.2599C89.6353 89.566 89.9391 89.8698 89.9391 90.2453C89.9391 90.6207 89.6353 90.9245 89.2599 90.9245Z" fill="#030401"/>
<path d="M80.3146 90.9245H67.6636C67.2882 90.9245 66.9844 90.6207 66.9844 90.2453C66.9844 89.8698 67.2882 89.566 67.6636 89.566H80.3146C80.69 89.566 80.9938 89.8698 80.9938 90.2453C80.9938 90.6207 80.69 90.9245 80.3146 90.9245Z" fill="#030401"/>
<path d="M64.2673 90.9245H61.5264C61.151 90.9245 60.8472 90.6207 60.8472 90.2453C60.8472 89.8698 61.151 89.566 61.5264 89.566H64.2673C64.6427 89.566 64.9465 89.8698 64.9465 90.2453C64.9465 90.6207 64.6427 90.9245 64.2673 90.9245Z" fill="#030401"/>
<path d="M74.9614 97.3774H61.5264C61.151 97.3774 60.8472 97.0736 60.8472 96.6982C60.8472 96.3227 61.151 96.0189 61.5264 96.0189H74.9614C75.3369 96.0189 75.6407 96.3227 75.6407 96.6982C75.6407 97.0736 75.3369 97.3774 74.9614 97.3774Z" fill="#030401"/>
</svg>
