<svg width="154" height="154" viewBox="0 0 154 154" fill="none" xmlns="http://www.w3.org/2000/svg">
<circle opacity="0.35" cx="77" cy="77" r="77" fill="#252525"/>
<circle cx="77" cy="77" r="60" fill="#252525"/>
<path d="M108.344 69.1684C108.344 81.1104 92.7191 95.0204 84.6359 101.422C81.8191 103.639 77.9615 103.639 75.1442 101.422C67.0393 95.0204 51.4146 81.1104 51.4146 69.1684C51.4146 59.0808 59.2375 50.9148 68.9032 50.9148C73.0639 50.9148 76.878 52.4311 79.89 54.9415C82.8804 52.408 86.695 50.9148 90.8557 50.9148C100.521 50.9148 108.344 59.0808 108.344 69.1684Z" fill="#909090"/>
<path d="M79.8906 104C78.0279 104 76.1653 103.388 74.6123 102.165C65.6175 95.06 50.5298 81.3282 50.5298 69.1739C50.5298 58.5991 58.7723 49.9963 68.9051 49.9963C72.9019 49.9963 76.6824 51.3014 79.8871 53.7779C83.0485 51.3014 86.8256 49.9963 90.857 49.9963C100.988 49.9963 109.231 58.5991 109.231 69.1739C109.231 81.2975 94.1585 95.0464 85.174 102.164C83.6175 103.388 81.7532 104 79.8906 104ZM68.9051 51.8447C59.7494 51.8447 52.3007 59.619 52.3007 69.1739C52.3007 80.9518 68.6509 95.1376 75.6794 100.69C78.1992 102.675 81.5854 102.672 84.1052 100.689C91.125 95.1286 107.46 80.9211 107.46 69.1739C107.46 59.619 100.011 51.8447 90.857 51.8447C86.9986 51.8447 83.3996 53.1651 80.4492 55.6642C80.124 55.9394 79.6623 55.9385 79.3371 55.6687C76.3365 53.1669 72.7289 51.8447 68.9051 51.8447Z" fill="#909090"/>
<path d="M102.587 69.1684C102.587 81.1104 86.9618 95.0204 78.8785 101.422C76.0617 103.639 72.2042 103.639 69.3869 101.422C61.2819 95.0204 45.6572 81.1104 45.6572 69.1684C45.6572 59.0808 53.4802 50.9148 63.1459 50.9148C67.3066 50.9148 71.1207 52.4311 74.1327 54.9415C77.1231 52.408 80.9377 50.9148 85.0984 50.9148C94.7636 50.9148 102.587 59.0808 102.587 69.1684Z" fill="#0048AD"/>
<path d="M74.1332 104C72.2706 104 70.408 103.388 68.855 102.165C59.8601 95.06 44.7725 81.3282 44.7725 69.1739C44.7725 58.5991 53.015 49.9963 63.1478 49.9963C67.1445 49.9963 70.9251 51.3014 74.1298 53.7779C77.2912 51.3014 81.0683 49.9963 85.0996 49.9963C95.2307 49.9963 103.473 58.5991 103.473 69.1739C103.473 81.2975 88.4011 95.0464 79.4167 102.164C77.8602 103.388 75.9958 104 74.1332 104ZM63.1478 51.8447C53.9921 51.8447 46.5434 59.619 46.5434 69.1739C46.5434 80.9518 62.8936 95.1376 69.922 100.69C72.4418 102.675 75.8281 102.672 78.3479 100.689C85.3677 95.1286 101.702 80.9211 101.702 69.1739C101.702 59.619 94.2536 51.8447 85.0996 51.8447C81.2412 51.8447 77.6423 53.1651 74.6918 55.6642C74.3684 55.9394 73.9067 55.9385 73.5798 55.6687C70.5792 53.1669 66.9716 51.8447 63.1478 51.8447Z" fill="#1D1D1D"/>
</svg>
