<svg width="154" height="154" viewBox="0 0 154 154" fill="none" xmlns="http://www.w3.org/2000/svg">
<circle opacity="0.35" cx="77" cy="77" r="77" fill="#252525"/>
<circle cx="77" cy="77" r="60" fill="#252525"/>
<path d="M79.1275 107.478C95.9599 107.478 109.605 93.8324 109.605 77C109.605 60.1676 95.9599 46.5222 79.1275 46.5222C62.2951 46.5222 48.6498 60.1676 48.6498 77C48.6498 93.8324 62.2951 107.478 79.1275 107.478Z" fill="#1D1D1D"/>
<path d="M79.1267 108.156C61.9466 108.156 47.9703 94.1801 47.9703 77C47.9703 59.8199 61.9466 45.8436 79.1267 45.8436C96.3069 45.8436 110.283 59.8199 110.283 77C110.283 94.1801 96.3069 108.156 79.1267 108.156ZM79.1267 47.2021C62.6962 47.2021 49.3288 60.5694 49.3288 77C49.3288 93.4306 62.6962 106.798 79.1267 106.798C95.5573 106.798 108.925 93.4306 108.925 77C108.925 60.5694 95.5573 47.2021 79.1267 47.2021Z" fill="#1D1D1D"/>
<path d="M74.874 107.478C91.7064 107.478 105.352 93.8324 105.352 77C105.352 60.1676 91.7064 46.5222 74.874 46.5222C58.0416 46.5222 44.3962 60.1676 44.3962 77C44.3962 93.8324 58.0416 107.478 74.874 107.478Z" fill="#0048AD"/>
<path d="M74.8734 108.156C57.6933 108.156 43.717 94.1801 43.717 77C43.717 59.8199 57.6933 45.8436 74.8734 45.8436C92.0536 45.8436 106.031 59.8199 106.031 77C106.031 94.1801 92.0536 108.156 74.8734 108.156ZM74.8734 47.2021C58.4429 47.2021 45.0755 60.5694 45.0755 77C45.0755 93.4306 58.4429 106.798 74.8734 106.798C91.3053 106.798 104.673 93.4306 104.673 77C104.673 60.5694 91.3053 47.2021 74.8734 47.2021Z" fill="#1D1D1D"/>
<path d="M74.874 101.151C88.2124 101.151 99.0253 90.3384 99.0253 77C99.0253 63.6616 88.2124 52.8488 74.874 52.8488C61.5357 52.8488 50.7228 63.6616 50.7228 77C50.7228 90.3384 61.5357 101.151 74.874 101.151Z" fill="#909090"/>
<path d="M74.8734 101.831C61.181 101.831 50.0425 90.6924 50.0425 77C50.0425 63.3076 61.181 52.1691 74.8734 52.1691C88.5658 52.1691 99.7043 63.3076 99.7043 77C99.7043 90.6924 88.5658 101.831 74.8734 101.831ZM74.8734 53.5276C61.9306 53.5276 51.401 64.0572 51.401 77C51.401 89.9428 61.9306 100.472 74.8734 100.472C87.8162 100.472 98.3458 89.9428 98.3458 77C98.3458 64.0572 87.8162 53.5276 74.8734 53.5276Z" fill="#1D1D1D"/>
<path d="M69.4653 88.8517C67.8826 88.8517 66.2985 88.2489 65.0942 87.0431L60.4268 82.3757C58.96 80.9089 58.96 78.5326 60.4268 77.0658C61.8936 75.599 64.2699 75.599 65.7367 77.0658L69.4653 80.7945L84.0104 66.2495C85.4772 64.7826 87.8534 64.7826 89.3203 66.2495C90.7871 67.7163 90.7871 70.0925 89.3203 71.5594L73.8365 87.0431C72.6322 88.2489 71.048 88.8517 69.4653 88.8517Z" fill="#0048AD"/>
<path d="M69.4647 89.5315C67.63 89.5315 65.9066 88.8178 64.6145 87.523L59.946 82.8558C58.2174 81.1259 58.2187 78.3134 59.946 76.5861C61.6746 74.8575 64.4858 74.8548 66.2171 76.5861L69.4647 79.8337L83.5299 65.7686C85.2572 64.0413 88.0683 64.0399 89.8009 65.7686C91.5282 67.4972 91.5282 70.311 89.8009 72.0396L74.3163 87.523C73.0241 88.8178 71.3008 89.5315 69.4647 89.5315ZM63.0809 76.6458C62.2597 76.6458 61.4876 76.9655 60.9065 77.5466C59.7085 78.7445 59.7085 80.696 60.9065 81.8953L65.575 86.5625C66.6111 87.6013 67.9921 88.173 69.4647 88.173C70.9373 88.173 72.3197 87.6013 73.3558 86.5625L88.8405 71.0792C90.0384 69.8799 90.0384 67.9284 88.8405 66.7291C87.6398 65.5284 85.6883 65.5338 84.4904 66.7291L69.945 81.2745C69.6796 81.5398 69.2498 81.5398 68.9845 81.2745L65.2566 77.5466C64.6755 76.9655 63.9034 76.6458 63.0809 76.6458Z" fill="#1D1D1D"/>
</svg>
