<svg width="32" height="32" viewBox="0 0 32 32" fill="none" xmlns="http://www.w3.org/2000/svg">
<g clip-path="url(#clip0_1101_1798)">
<path d="M16 18.8125C17.5533 18.8125 18.8125 17.5533 18.8125 16C18.8125 14.4467 17.5533 13.1875 16 13.1875C14.4467 13.1875 13.1875 14.4467 13.1875 16C13.1875 17.5533 14.4467 18.8125 16 18.8125Z" fill="#50C8E5"/>
<path d="M27.7132 16C27.9183 15.7507 28.1137 15.5008 28.2986 15.2506C30.3779 12.4362 30.9311 9.86125 29.8567 8C28.4003 5.477 24.7357 5.37894 21.857 5.85731C20.8328 3.12613 18.9114 0 16.0004 0C13.0883 0 11.168 3.12638 10.1439 5.85731C7.2652 5.37894 3.6002 5.47762 2.1442 8C0.688136 10.5225 2.43451 13.7472 4.2877 16C2.43432 18.253 0.688761 21.4786 2.1442 24C3.60226 26.5249 7.26895 26.6204 10.1439 26.1427C11.1681 28.8738 13.0895 32 16.0004 32C18.9126 32 20.8329 28.8736 21.857 26.1427C24.7386 26.6215 28.4033 26.5187 29.8567 24C31.3128 21.4775 29.5664 18.2528 27.7132 16ZM28.2329 8.9375C29.1751 10.5692 27.6154 13.1142 26.4422 14.5902C25.5041 13.6342 24.4307 12.7004 23.2514 11.8136C23.0731 10.3494 22.8011 8.95325 22.4424 7.66325C24.309 7.385 27.2889 7.303 28.2329 8.9375ZM16.0004 22.3244C14.1807 21.4928 12.2828 20.414 10.5234 19.1619C10.3261 17.0894 10.3261 14.9114 10.5234 12.8381C12.1869 11.6543 14.0731 10.5564 16.0004 9.67569C17.8241 10.509 19.7217 11.5886 21.4775 12.8381C21.6748 14.9109 21.6748 17.0887 21.4775 19.1619C19.8059 20.3516 17.9186 21.4478 16.0004 22.3244ZM21.1349 21.6532C20.9879 22.4587 20.809 23.2324 20.5996 23.9661C19.8597 23.7805 19.1004 23.5487 18.3296 23.2733C19.286 22.7772 20.2224 22.2366 21.1349 21.6532ZM13.6713 23.2734C12.9004 23.5487 12.1412 23.7802 11.4012 23.9657C11.1919 23.2321 11.0129 22.4586 10.866 21.6533C11.7774 22.2359 12.7138 22.7766 13.6713 23.2734ZM8.5372 17.6196C7.9132 17.0897 7.33276 16.548 6.80207 16C7.33276 15.4519 7.9132 14.9103 8.5372 14.3803C8.48826 15.4631 8.4882 16.5356 8.5372 17.6196ZM10.8659 10.3468C11.0129 9.54138 11.1918 8.76794 11.4011 8.03431C12.1411 8.21987 12.9003 8.45131 13.6712 8.72669C12.7149 9.22275 11.7781 9.76363 10.8659 10.3468ZM18.3296 8.72669C19.1005 8.45125 19.8597 8.21981 20.5997 8.03431C20.809 8.76794 20.9879 9.54144 21.1349 10.3468C20.2216 9.76288 19.2848 9.22212 18.3296 8.72669ZM23.4637 14.3803C24.0877 14.9103 24.6681 15.4519 25.1989 16C24.6683 16.5479 24.0879 17.0894 23.4638 17.6192C23.5126 16.5368 23.5127 15.4644 23.4637 14.3803ZM16.0004 1.875C17.8848 1.875 19.3084 4.4985 20.0003 6.25275C18.7034 6.58712 17.3581 7.04912 16.0004 7.62687C14.6428 7.04912 13.2974 6.58712 12.0006 6.25275C12.6918 4.5 14.1156 1.875 16.0004 1.875ZM3.76795 8.9375C4.71189 7.30313 7.69151 7.38494 9.55845 7.66331C9.19976 8.95331 8.92776 10.3494 8.74945 11.8137C7.5702 12.7004 6.49676 13.6343 5.5587 14.5903C4.38639 13.1156 2.82551 10.5696 3.76795 8.9375ZM3.76795 23.0625C2.82576 21.4309 4.38532 18.8857 5.5587 17.4098C6.49676 18.3658 7.5702 19.2996 8.74945 20.1864C8.92776 21.6506 9.19976 23.0468 9.55845 24.3368C7.69226 24.6151 4.71039 24.6946 3.76795 23.0625ZM16.0004 30.125C14.1161 30.125 12.6925 27.5016 12.0006 25.7472C13.2974 25.4129 14.6428 24.9509 16.0004 24.3731C17.3581 24.9509 18.7034 25.4129 20.0003 25.7472C19.3091 27.5 17.8853 30.125 16.0004 30.125ZM28.2329 23.0625C27.2914 24.6929 24.31 24.6164 22.4421 24.3379C22.8009 23.0476 23.073 21.651 23.2514 20.1864C24.4306 19.2996 25.5041 18.3658 26.4421 17.4098C27.6145 18.8844 29.1754 21.4304 28.2329 23.0625Z" fill="#50C8E5"/>
</g>
<defs>
<clipPath id="clip0_1101_1798">
<rect width="32" height="32" fill="white"/>
</clipPath>
</defs>
</svg>
