<svg width="32" height="32" viewBox="0 0 32 32" fill="none" xmlns="http://www.w3.org/2000/svg">
<path d="M26.2291 24.2186C21.1879 15.0002 22.5259 17.4471 20.7968 14.2842V4.88869H21.4621C22.0431 4.88869 22.5141 4.39135 22.5141 3.77784C22.5141 3.16432 22.0432 2.66699 21.4621 2.66699H10.5373C9.95637 2.66699 9.48533 3.16432 9.48533 3.77784C9.48533 4.39135 9.95631 4.88869 10.5373 4.88869H11.2027V14.2842C9.50053 17.3977 10.5835 15.4171 5.77011 24.2191C4.52854 26.4919 6.07915 29.3337 8.56718 29.3337H23.4323C25.9213 29.3337 27.4706 26.4914 26.2291 24.2186ZM13.3067 14.5819V4.88875H18.6928V14.5818C18.6928 14.967 18.8072 15.0884 19.4257 16.2199H12.5738C13.2061 15.0632 13.3067 14.9587 13.3067 14.5819Z" fill="#1FB76D"/>
</svg>
